/* XPM */
static char *result[] = {
/* columns rows colors chars-per-pixel */
"32 32 37 1 ",
"  c black",
". c #05263B",
"X c #400000",
"o c #0A4164",
"O c #800000",
"+ c #A00000",
"@ c #C00000",
"# c #E00000",
"$ c red",
"% c #804000",
"& c #C06000",
"* c yellow",
"= c #055888",
"- c #0471B4",
"; c #0673B6",
": c #0673B7",
"> c #0975B9",
", c #0877BB",
"< c #0A76BA",
"1 c #0D77BA",
"2 c #0979BD",
"3 c #0979BE",
"4 c #0A7ABF",
"5 c #0E78BC",
"6 c #0F78BC",
"7 c #0F79BC",
"8 c #0F7ABE",
"9 c #0B7CBC",
"0 c #107ABE",
"q c #117ABE",
"w c #0B7CC1",
"e c #0C7CC1",
"r c #0C7FC5",
"t c #1381C2",
"y c #118BD4",
"u c #128CD5",
"i c #1492DC",
/* pixels */
"................................",
"...qooo.ooooo.ut99999i.====ooo>.",
"..5oooo.ooooo.2t99999i.===oooo>.",
".qooooo.ooooo.;t99999i.8oooooo>.",
".oooooo.ooooo.,t99999i.oooooo0<.",
".6666$6.66661.yiiiiiiy.16666666.",
".....$...$......................",
".ooo$#1o$ooo7::::.5.=====e8..oo.",
".ooo$.6$#oooooooooo.ooooooo..oo.",
".oo@#$$@ooooooooooo.ooooooo<.oo.",
".>>@$@*$$oooooooooo.ooooooo0.oo.",
"...#$**+$$...................oo.",
".i@#$#O@+#$$.......qo6.tt333.oo.",
".i$##XOO+@$#$##.ooooo6.t9999.==.",
".+##X+oo&O+@#@#$$$$$@6.t9999.==.",
".##XXOooo%O+@@#$#@$##$$$9999.==.",
".#XX+....&%O+++++@+@@####$99....",
".o#+ooo<=.&&++#@O@@@++###$$$.ww.",
".oooooo05 #%%O#$++@+$$#+@#$#$--.",
".ooooooo  ++&&$+O++#@#@#++@@$$o.",
"........ O+O %$@+++$##+OOOO+##@.",
".99.===o      $@%&%$#@+%&%&+#$+ ",
".99.ooooo.   $@O   #$@@    ++$# ",
".99.=oooo.i @@O   ##++      @#O ",
".99.=oooo.io       +@@  o===@@O ",
".99.ooooo.ioooo..o     oooo@@$  ",
".99.ooooo.ioooo..oooooooooo#$O .",
".99.ooooo.................@+O  .",
"..9.=oooo.6<....<oooo====#$O  r.",
".49.==oo=.6oooooooooooo=@O   99.",
".=4.===oo.6oooooooooooo=   9999.",
"................................"
};
