/* XPM */
static char *result[] = {
/* columns rows colors chars-per-pixel */
"32 32 50 1 ",
"  c black",
". c #002000",
"X c #202000",
"o c #01243C",
"O c #403000",
"+ c #004000",
"@ c #006000",
"# c #604800",
"$ c #404020",
"% c #012641",
"& c #012A45",
"* c #012E4B",
"= c #01304E",
"- c #013353",
"; c #023658",
": c #023A5E",
"> c #033D62",
", c #034066",
"< c #03446B",
"1 c #034770",
"2 c #034A74",
"3 c #014D7A",
"4 c #806000",
"5 c #A07800",
"6 c #008000",
"7 c #00A000",
"8 c #00C000",
"9 c #C09000",
"0 c yellow",
"q c #808040",
"w c #015382",
"e c #015788",
"r c #03598C",
"t c #035E95",
"y c #046097",
"u c #04629A",
"i c #0266A2",
"p c #0469A4",
"a c #086DA6",
"s c #046DAB",
"d c #0372AE",
"f c #0474B1",
"g c #0877B4",
"h c #0878B6",
"j c #037DBD",
"k c #097EBD",
"l c #047FC0",
"z c #0481C2",
"x c #0883C5",
"c c #0884C8",
/* pixels */
"ooo%oooooo%ooo*&&&&&&*oo%%%ooo&o",
"oo-y<:;%;>>>;*ghfddffj-2ww3>><t&",
"o-t2,>>%:>,>:*fxjjjjxx;wew<,><i&",
"or2>>,>%>,>,:*sljjjjlc;u1>,>>2i*",
"%2111<<&<<11<=dxllllxc-111113fs&",
"&tpap8y-upppy-fcccxxch-tpppppfi&",
"o***-9-%=8==-=;:;-;---*-=;;****o",
"o;:<87p<8::<uuput-r*2333wpt&o;;o",
"o>><9;p95>,,<11<<><*,,,,>11*o>;o",
"o>2@5986,,,>>,,>,,:o>,,,>>1t*>>%",
"oya696098,>>>:>,:>:o;>>:>>>u*>>o",
"o;=7800#97ooooooooo*o*o==*=-%>;o",
"=d6587O4@588oooooo&y1u-afffi*>>%",
"=h957X+O@497955&:>><1a;gljlf=33%",
"*#57X@<<q+#4747898886d;fljjd-ww%",
"*77X.O::,$+#665974855979jjld*32%",
"o5XX@%&&&q$+@##@#4@6457779zg===o",
"o:7#>:<pw-qq#@54+466@#557988;ii&",
"o>,>>,1aa 7$$O78@#6#997#65879ii&",
"o;:>::><  @#qq8#+##76745##6698<o",
"o&=%&&&% +@+ $96#@@955@OO+O#756o",
"%pp=233>      84$q$976@$q$q#79@ ",
"&gd=,<<,:-   84+   5964    ##95 ",
"&dd=3,>>:-k 64+   55@#      67+ ",
"&fd=3<>,:-k1       @64  <wew46+ ",
"&dd=>,,>:-l2>>:oo>     ,,<<648  ",
"&dd=:,>,:*f1>>:oo:>:::>::::58O o",
"&sd=>,>,>%-*oooo&%&%&&&&&%6#+  o",
"o,p-2<,,>*iu*oo*t,::>333378O  s&",
"&ud-3e,<3-p2>;>:<,,,,<<e4O   zf&",
"oeu=333,;*t<:>>>>>>:>:,3   fdfi&",
"oo&o&&oooo&ooooooooo%oo%oo=&&&&o"
};
