/* XPM */
static char *result[] = {
/* columns rows colors chars-per-pixel */
"32 32 51 1 ",
"  c black",
". c #01243C",
"X c #400020",
"o c #200040",
"O c #012641",
"+ c #012A45",
"@ c #012E4B",
"# c #01304E",
"$ c #013353",
"% c #023658",
"& c #023A5E",
"* c #033D62",
"= c #402040",
"- c #034066",
"; c #03446B",
": c #034770",
"> c #034A74",
", c #014D7A",
"< c gray25",
"1 c #800040",
"2 c #A00050",
"3 c #C00060",
"4 c #E00070",
"5 c yellow",
"6 c #400080",
"7 c #5000A0",
"8 c #015382",
"9 c #015788",
"0 c #03598C",
"q c #035E95",
"w c #046097",
"e c #04629A",
"r c #0266A2",
"t c #0469A4",
"y c #086DA6",
"u c #046DAB",
"i c #0372AE",
"p c #0474B1",
"a c #0877B4",
"s c #0878B6",
"d c #037DBD",
"f c #097EBD",
"g c #6000C0",
"h c #7000E0",
"j c #047FC0",
"k c #FF0080",
"l c #806080",
"z c #8000FF",
"x c #0481C2",
"c c #0883C5",
"v c #0884C8",
/* pixels */
"...O..........@+++++@+.OOOO...+.",
"..$w;&%O%***%@asppuppf$>88,**;qO",
".$q>-**O*****@pjjdjdjv%999;-*:r@",
".0>**-*O*;**&@ujddddjv%q;****>r+",
"O::::>;+;:;:;@pcjjjjvv$:::::>pu+",
"+qyyt4w$ettyq$pvvvvvvp$qytttypr+",
".@@@%z$+@k@@$@%%%#%#%$+##%%@@@@.",
".%**k4y*k&*;errrq$0@>,,88rqO.%&.",
".***z%yhh***;:;:;*;+*;*;*::@O*&.",
"O*:3hzk3*::****-**&O******:q@**.",
"+qt3z35zk*****&***&.%**&***q+**.",
".%#4k557zkOO......O+O@O@###$O*%.",
"@y3h446g2hkk......@q:q%ypuur@**.",
"@fzh4o162gz4zhhO&*&;:t%sjjjp#8,O",
"@7h4o2;;l17g4g4kzkkk3y*jjjdp#88O",
"@44oX6*&&=1733hz4gkhhzkhdjjp#,>O",
".hoo2OO@+l<127727g23gh444zxp@##.",
".%47*&;r8$ll72hg1g3327hh4zkk%tt+",
".*--*-;ir 4=<64k2737zz473hk4htr+",
".%&*&&*;  27llk7177434gh7733zk-.",
".@@.+++O 121 =z3722zhh2661674h3O",
"+tt#>,,*      kg=l=z432=l=l74z2 ",
"@pi#-;;-&$   kg1   hz3g    77zh ",
"+ii#>;**&$f 3g1   hh27      341 ",
"+ip#,---&#j>       23g  ;898g41 ",
"@ii#*-*-*#j:**&..*     **;-3g4  ",
"+pp@&*--&@p:**&..%***&&&&*&hk= .",
"+ti@&--**+$#....++O+O++++O371  .",
".-t$,;--*@rq@..@q;&&*,8884k6  j#",
"+ei$,9;->#y>*&&*;*-***;9g6   vp@",
".9e$,8,-&@q*&&**&******,   sppr+",
"..@.......@O..........OOOO+++++."
};
