/* XPM */
static char *result[] = {
/* columns rows colors chars-per-pixel */
"32 32 249 2 ",
"   c black",
".  c #012138",
"X  c #012139",
"o  c #012239",
"O  c #01223A",
"+  c #01233A",
"@  c #01223B",
"#  c #01233B",
"$  c #01233C",
"%  c #01243C",
"&  c #01243D",
"*  c #01253D",
"=  c #01253E",
"-  c #202020",
";  c #012640",
":  c #012641",
">  c #012741",
",  c #012742",
"<  c #012842",
"1  c #012843",
"2  c #012943",
"3  c #012844",
"4  c #012944",
"5  c #012945",
"6  c #012A44",
"7  c #012A45",
"8  c #012A46",
"9  c #012B46",
"0  c #012A47",
"q  c #012B47",
"w  c #012C47",
"e  c #022B48",
"r  c #012C48",
"t  c #012C49",
"y  c #022C48",
"u  c #022D49",
"i  c #012C4A",
"p  c #012D4A",
"a  c #012D4B",
"s  c #012E4B",
"d  c #022E4B",
"f  c #012E4C",
"g  c #012F4C",
"h  c #012E4D",
"j  c #012F4D",
"k  c #022F4D",
"l  c #012F4E",
"z  c #01304D",
"x  c #01304E",
"c  c #01304F",
"v  c #01314F",
"b  c #02304E",
"n  c #02304F",
"m  c #013050",
"M  c #013150",
"N  c #013151",
"B  c #013250",
"V  c #013251",
"C  c #023251",
"Z  c #013252",
"A  c #013353",
"S  c #023252",
"D  c #023352",
"F  c #013354",
"G  c #013454",
"H  c #023454",
"J  c #013556",
"K  c #023556",
"L  c #013657",
"P  c #023656",
"I  c #013658",
"U  c #023658",
"Y  c #023758",
"T  c #01375A",
"R  c #02385A",
"E  c #02385B",
"W  c #02395C",
"Q  c #023A5D",
"!  c #023A5E",
"~  c #023B5E",
"^  c #023B5F",
"/  c #023B60",
"(  c #013C60",
")  c #023C60",
"_  c #023D61",
"`  c #033D61",
"'  c #023D62",
"]  c #023D63",
"[  c #023E62",
"{  c #023E63",
"}  c #033E63",
"|  c #033F63",
" . c #033E64",
".. c #033F64",
"X. c #033F65",
"o. c #034064",
"O. c #034065",
"+. c #024066",
"@. c #034066",
"#. c #034067",
"$. c #024167",
"%. c #024168",
"&. c #034168",
"*. c #024268",
"=. c #034268",
"-. c #024269",
";. c #034269",
":. c #03436B",
">. c #02446B",
",. c #02446C",
"<. c #03446C",
"1. c #02446D",
"2. c #03446D",
"3. c #02466E",
"4. c #03466E",
"5. c #03466F",
"6. c #034670",
"7. c #034770",
"8. c #034771",
"9. c #034871",
"0. c #034872",
"q. c #044972",
"w. c #044973",
"e. c #014974",
"r. c #034974",
"t. c #014A75",
"y. c #034A75",
"u. c #034B76",
"i. c #034B77",
"p. c #044B77",
"a. c #014C77",
"s. c #014C78",
"d. c #014C79",
"f. c #014D79",
"g. c #014D7A",
"h. c #014E7C",
"j. c #014F7C",
"k. c #014F7D",
"l. c gray25",
"z. c #606060",
"x. c yellow",
"c. c #015180",
"v. c #015280",
"b. c #015281",
"n. c #015381",
"m. c #015282",
"M. c #015382",
"N. c #015383",
"B. c #015484",
"V. c #015686",
"C. c #015787",
"Z. c #015788",
"A. c #03598C",
"S. c #025C92",
"D. c #055E93",
"F. c #015D95",
"G. c #025E96",
"H. c #055E94",
"J. c #055F95",
"K. c #045F96",
"L. c #046097",
"P. c #02619A",
"I. c #03629B",
"U. c #046098",
"Y. c #046198",
"T. c #046199",
"R. c #046299",
"E. c #04629A",
"W. c #04639B",
"Q. c #04649C",
"!. c #0164A0",
"~. c #0165A1",
"^. c #0266A0",
"/. c #0166A2",
"(. c #0167A3",
"). c #0267A2",
"_. c #0266A3",
"`. c #0466A1",
"'. c #0466A2",
"]. c #0467A2",
"[. c #0267A4",
"{. c #0369A1",
"}. c #0268A2",
"|. c #0268A3",
" X c #036AA2",
".X c #0369A4",
"XX c #0269A5",
"oX c #036BA4",
"OX c #0568A4",
"+X c #0569A4",
"@X c #0569A5",
"#X c #0569A6",
"$X c #056AA6",
"%X c #056AA7",
"&X c #086DA6",
"*X c #056BA8",
"=X c #026DAB",
"-X c #046EAB",
";X c #036EAE",
":X c #056FAD",
">X c #0670AA",
",X c #0272AE",
"<X c #0372AE",
"1X c #0373AE",
"2X c #0273AF",
"3X c #0373AF",
"4X c #0670AF",
"5X c #0774AF",
"6X c #0271B1",
"7X c #0373B0",
"8X c #0372B1",
"9X c #0373B2",
"0X c #0671B0",
"qX c #0274B0",
"wX c #0374B0",
"eX c #0374B1",
"rX c #0375B2",
"tX c #0376B3",
"yX c #0674B2",
"uX c #0777B4",
"iX c #0677B5",
"pX c #0877B3",
"aX c #0877B4",
"sX c #0878B6",
"dX c #077AB8",
"fX c #037DBD",
"gX c #037DBE",
"hX c #037EBE",
"jX c #037EBF",
"kX c #047EBE",
"lX c #047EBF",
"zX c #087BBA",
"xX c #097EBE",
"cX c #097FBF",
"vX c #047FC0",
"bX c #0480C1",
"nX c #0481C2",
"mX c #0581C2",
"MX c #0481C3",
"NX c #0583C6",
"BX c #0880C2",
"VX c #0882C4",
"CX c #0884C6",
"ZX c #0884C7",
"AX c #0884C8",
"SX c #0984C8",
"DX c #0885C8",
"FX c #808080",
"GX c #A0A0A0",
/* pixels */
". . o 6 = & % o % & & & % + w e 9 8 8 8 q y # ; : : : & & = 3 O ",
". . Z J.&.^ E : E / / / R f yXsX1X,X,X,XrXdXC a.b.v.g.[ ~ %.G.7 ",
"o Z K.y.O.../ < / X...X.^ j 9XVXlXhXhXhXnXDXK B.Z.N.,.o.| 4._.q ",
"6 H.r...} ..^ < ^ .. ...~ f =XBXkXfXfXfXbXZXR R.7.+...} ..u.[.0 ",
"; 9.7.5.5.6.;.6 ;.5.5.6.%.j 8XCXmXbXbXbXNXDXD 6.7.5.5.4.p.0X;X8 ",
"4 Y.#X@XOXFXU.N T.$X@X#XL.A yXSXSXAXZXAXDXiXG K.@XOX+X@X$X4X'.7 ",
"O a h l J FXF , s FXh l F a L R Y n U b H Z 5 m Z I J i r f p O ",
"% R ~ @.FXz.].%.FX~ ~ @.Q./.!.~.F.F A.f e.h.j.j.v..XW.1 # R R % ",
"& ^ ..O.FXT %XFXz.....@.4.5.3.3.1.{ #.4 { -.*.*.-.5.:.i = ) / & ",
"= %.5.l.z.FXFXl......... . . . ...O.^ < ^ ........} 2.P.s ^ / & ",
"3 G.[.l.FXl.x.FXFX) ) / / / / / / ) E ; R ^ / ~ ~ ~ =.E.f ^ / & ",
"$ H f z.FXx.x.- FXFX% % % % & & & % = 8 4 t ; s k h l Z ; ^ ^ & ",
"u >Xl.z.FXz.  l.- z.FXFX* * % X % % t D.0.Y.G &XuX6X6X|.s ] { & ",
"d zXFXz.z.      - l.FXz.FXz.z.: E ) ` <.8.@XU aXvXgXjX7XM j.k.; ",
"d - z.z.  - @.<.GX  - l.z.l.z.FXFXFXFXFXl.OXU pXkXfXhX1XV b.n.: ",
"u z.z.      ^ ! ~ z.  - l.l.z.FXz.l.FXz.z.FXFXFXkXfXhX<Xv s.s.; ",
"+ z.    - < 2 p 8 GXz.  - - - - - l.- l.l.z.z.z.z.FXnXtXa l c # ",
"% R z.- ^ ^ %.).m.S GXGX- - z.l.  l.l.l.- - z.z.z.FXFXFXP XXXX8 ",
"& / O.X.X...4.:X].  z.z.z.  z.FX- - l.- FXFXz.- l.z.FXz.FX(./.7 ",
"% R ^ / ~ ~ ) =.    - - GXGXFX-   - - z.l.z.l.z.- - l.l.FXFX+.* ",
"O p s ; 8 8 8 <     -     z.FXl.- - - FXz.z.-         - z.z.l.= ",
"7  X Xj e.k.d.[             FXl.z.GXz.FXz.l.- z.GXz.GX- z.FX-   ",
"q wXwXz +.-.*.O.~ C       FXl.        z.FXl.l.        - - FXz.  ",
"8 2X7XM s.%.....~ C xX  l.l.        z.z.- -             l.z.    ",
"8 2X7XB s.*.....~ C xXq.              - l.l.    ,.N.V.M.l.l.    ",
"8 2XqXg ' O.....~ C cXw. .X.) % % )           ....*.*.l.l.FX    ",
"9 wXqXf ! ......~ n 5X<.~ ) W % # E / / ^ ~ ~ ~ ~ ^ Q z.FX    . ",
"7 oX<Xg ' o.....^ > H g = % % O 7 1 < < 1 8 8 8 7 ; l.-       O ",
"@ ( oXV d.,...X.' s `.I.r % % i S.$.~ ^ [ f.k.v.s.z.FX      -X8 ",
"4 }.<XV c.B.>.*.t.M *Xi._ / / _ <.@.X.X.O.*.,.C.l.        MXeXq ",
"; B.^.x s.b.g.[ Q a T.=.^ / / / ^ / / / / ^ [ k.      rX,X3X{.7 ",
"o ; 4 # ; : : & $ O 4 = & & & & & & & & & & & : ; # y q 8 q 7 o "
};
