/* XPM */
static char *result[] = {
/* columns rows colors chars-per-pixel */
"64 64 215 2 ",
"   c #070808",
".  c #080A0B",
"X  c #0C0F11",
"o  c #0B1218",
"O  c #161412",
"+  c #161A1D",
"@  c #291E17",
"#  c #2D221B",
"$  c #352518",
"%  c #3C2A1E",
"&  c #0C1B25",
"*  c #061D2C",
"=  c #151E24",
"-  c #041F33",
";  c #08202F",
":  c #182127",
">  c #16242D",
",  c #182328",
"<  c #18232B",
"1  c #052337",
"2  c #092333",
"3  c #05253A",
"4  c #0B273A",
"5  c #06283E",
"6  c #172934",
"7  c #132D3C",
"8  c #15333E",
"9  c #262625",
"0  c #2B2622",
"q  c #2D2C2B",
"w  c #342A23",
"e  c #3D2D22",
"r  c #322E2B",
"t  c #3F3026",
"y  c #37322E",
"u  c #3C322B",
"i  c #2A363A",
"p  c #383737",
"a  c #4A3D19",
"s  c #52321C",
"d  c #412E23",
"f  c #423125",
"g  c #423429",
"h  c #4A3729",
"j  c #533520",
"k  c #573B28",
"l  c #593C28",
"z  c #493C33",
"x  c #613E25",
"c  c #324434",
"v  c #334A3D",
"b  c #5D412E",
"n  c #5D4432",
"m  c #654026",
"M  c #62422B",
"N  c #6D472C",
"B  c #794826",
"V  c #784928",
"C  c #614531",
"Z  c #6E4B32",
"A  c #764E32",
"S  c #71513A",
"D  c #062B43",
"F  c #0A2D44",
"G  c #052F48",
"H  c #132F42",
"J  c #0F3545",
"K  c #05314C",
"L  c #0A334C",
"P  c #143244",
"I  c #183344",
"U  c #17364A",
"Y  c #063552",
"T  c #093552",
"R  c #063857",
"E  c #093856",
"W  c #04375A",
"Q  c #063A5A",
"!  c #093A5A",
"~  c #313A40",
"^  c #053E64",
"/  c #093F61",
"(  c #023E69",
")  c #184559",
"_  c #344745",
"`  c #37544B",
"'  c #335755",
"]  c #355A56",
"[  c #345B59",
"{  c #054165",
"}  c #0A4164",
"|  c #05456D",
" . c #0A456B",
".. c #07486F",
"X. c #174960",
"o. c #164B64",
"O. c #044671",
"+. c #054B75",
"@. c #0A4B74",
"#. c #064E7A",
"$. c #0B4F7B",
"%. c #07527E",
"&. c #0B507D",
"*. c #175478",
"=. c #346465",
"-. c #35627F",
";. c #675445",
":. c #775842",
">. c #824C26",
",. c #854E29",
"<. c #87512C",
"1. c #89522D",
"2. c #915327",
"3. c #955629",
"4. c #985729",
"5. c #93582E",
"6. c #9B592B",
"7. c #865432",
"8. c #8B5631",
"9. c #8C5D3B",
"0. c #935931",
"q. c #905F3C",
"w. c #A25D2E",
"e. c #A25F31",
"r. c #956427",
"t. c #8F603E",
"y. c #96623D",
"u. c #98643F",
"i. c #A6602F",
"p. c #A9622F",
"a. c #BD7C2C",
"s. c #A66131",
"d. c #AC6432",
"f. c #AE6936",
"g. c #A7663A",
"h. c #AE6A3A",
"j. c #B16632",
"k. c #B36C35",
"l. c #B16D3D",
"z. c #B87938",
"x. c #BA7E39",
"c. c #8B6448",
"v. c #9A6A48",
"b. c #AC6E42",
"n. c #A06F4D",
"m. c #B06F42",
"M. c #AF7144",
"N. c #A97048",
"B. c #B17244",
"V. c #B2754B",
"C. c #B77E4C",
"Z. c #B47B52",
"A. c #B97F55",
"S. c #AC881D",
"D. c #8F8226",
"F. c #91872E",
"G. c #8F8A34",
"H. c #8F8D3A",
"J. c #918B34",
"K. c #928E39",
"L. c #BD843D",
"P. c #D29E2B",
"I. c #DCAC21",
"U. c #D4A12C",
"Y. c #DDB127",
"T. c #DDB12A",
"R. c #D4A431",
"E. c #919746",
"W. c #BE8644",
"Q. c #BD8351",
"!. c #C28D46",
"~. c #C28B49",
"^. c #065482",
"/. c #0A5585",
"(. c #0A5788",
"). c #0C5788",
"_. c #055A8B",
"`. c #0B5A8C",
"'. c #145985",
"]. c #065C92",
"[. c #0C5D90",
"{. c #0C6296",
"}. c #06629B",
"|. c #0B659C",
" X c #0A689E",
".X c #186D95",
"XX c #126698",
"oX c #10669F",
"OX c #327186",
"+X c #0C67A1",
"@X c #0668A4",
"#X c #0B6AA4",
"$X c #0D6DAB",
"%X c #106AA6",
"&X c #106DA4",
"*X c #0E71AE",
"=X c #1271A9",
"-X c #0E74B2",
";X c #0C78B9",
":X c #0B7CBD",
">X c #1174B3",
",X c #1178B6",
"<X c #117ABA",
"1X c #077BC1",
"2X c #0B7EC2",
"3X c #117EC1",
"4X c #378596",
"5X c #0C82C5",
"6X c #0E84C9",
"7X c #0F88CE",
"8X c #1182C3",
"9X c #1286CA",
"0X c #118CD5",
"qX c #128FD8",
"wX c #1291DB",
/* pixels */
"3 5 3 3 3 3 1 1 3 3 1 3 3 3 3 3 3 3 3 5 3 3 3 3 3 3 5 3 1 1 1 3 3 1 1 1 1 1 1 1 1 1 1 1 3 3 3 3 3 3 3 3 3 3 3 3 3 3 3 3 3 3 3 3 ",
"3 3 3 3 1 D T ! K D F F D D 3 D F F D D D D F F D D 5 D R / ! ! ! ! Q Q Q Q Q Q Y } { Y 5 5 G K K K K K Y K G 5 D G 5 G E Y 5 3 ",
"3 3 5 3 - T ).[. .! ! ! ! T D D U / ! / / / ! / / L 5 T [.*X%X&X X|.}.{.{.}. X X X X-XXX} F { +.+.+.+.+.+...{ ) Q ! !  ._.^.Y 3 ",
"3 3 1 D Y @.XXoX$./ /  .^ ! D D / ( /  ./ / / ^ ^ E D ^ *X0X9X8X5X:X5X:X5X5X;X5X5X6XqX,X{ 5 +._._._._._.%.+.{ } } } } $.#X XQ 1 ",
"5 3 1 Y /.{.).@. .} } }  .! F D ! / / ^ /  ./  ./ ! D ! +X3X9X3X5X5X5X5X5X;X5X;X5X5XqX,X} K O._._._._.%.#. .} } } } } $.$X}.Q 3 ",
"3 D T ..{.|.@./ / } } / / ! D F / o./ / / / / / / ! D W }.2X8X3X*X5X*X5X;X5X-X5X;X5XqX,X{ K %.{.^.%.%.#. .} } } } } ! $.#X}.W 3 ",
"1 Y ).XX).@. ./ } } }  .} ! D D ! / / /  ./ /  .^ ! F W ].1X3X3X5X*X5X*X*X5X5X-X;X5XqX-X! Y {.#X%. ...} } } } } } } ^ $.#X}.W 3 ",
"1 R [.|.@./ / / } / } } ^ ! D D ! /  . ./ / /  ./ / F T }.1X3X3X5X5X*X5X5X5X-X5X5X5XqX,X} T `.|.@.} } } } } } } } } @.`.*X}.Q 1 ",
"4 K  .@. ./ / / / } } / } E F F E / / / / / / / / ! D Q }.1X3X3X5X*X5X*X:X:X:X:X;X5XqX,X} F { @. ./ / / } / / / } ..[.>X;X].^ 1 ",
"1 F  .$.&.$.$.$.&.&.$.$./. .G D  ./.&.$.&.&.$.$.&.} G Q +X9X9X9X5X5X5X5X5X5X5X5X5X7XwX,X} G } &.$.$.$.$.$.$.$.$.&.).>X3X1X+X! 1 ",
"3 Y `.$X$X=X$X$X%X%X$X%X$X`.Y Y `.$X$X=X%X%X$X$X$X`.Y ! $XqXqXwXqX7X7XqX0XqX0X0XqXqXwX,X} K (.#X$X$X$X%X$X$X%X$X&X-X<X3X3X+X! 1 ",
"4 Y /.+X+XoX|.|.+XoXoX+X+X/.Y T /.+X+X|.%X+X+X+X+X/.K R {.>X>X<X5X&X8X5X,X,X<X,X,X,X,X[.Y K ^. XoX+XoX|.oXoX+X+X|.oX|.|.+X/.Y 1 ",
"3 D Y W ! W ! ! W ! Q Q ! T D D Y ! W ! Q ! ! Q Q R D D ! / / / { ) { { } } ^ ^ { } { Y 5 5 Y } ! W ! R ! ! W ! ! ! W ! W K D 3 ",
"3 D D D D F D D T Q W W Y Y D D D D D 5 1 - ; ; 2 2 2 2 2 2 2 2 * * * 1 G G D 3 D F K K K K K K G Y R ! W Y D - 1 1 D F D D D 3 ",
"3 F K ! E ! ! } `.|.+X].|.`.} ! ! ! ! L & o + = = : : : = = = = + + X 1 %.^.K D { +.+.+.+.+.+.+.+.^.{.+X+X).Y 1 1 D T ! ! T D - ",
"3 F ! /  .} ^ $.{.#X].@X-X$X$.^ } / ! H 0 $ d d f g d f f f f d e % $ c -.OXL D | ^.^.%.^.^.^.%.%._.+X-X>X[.Y 1 1 F / ^ / ! D 3 ",
"3 D !  ./ / /  .$.@./ ( %X$X$./ / ! 2 0 x 1.1.1.1.8.<.<.<.<.<.1.1.,.>.7.c.;.9 * ! @.@. . . ... .| @.$.$.&. .G 1 1 G / }  .! F 3 ",
"3 D ! /  ./ /  ./ E F E oX$X$./ T P 0 s 0.k.a.a.a.a.a.a.a.a.a.a.a.a.a.a.k.3.s 0 7 R ! } } } } } } } ! } / / ! T D F ! } } ! D 3 ",
"3 D ! ^ / / / / / ! 5 W oX$X/.T 2 0 x 5.h.x.P.I.I.I.I.I.I.I.I.I.I.I.I.P.x.g.5.m 0 2 T } } } } } } } } } ^ @.]./.Y D ! } } ! D 3 ",
"3 G  .$.&.&.&.$.( E D / oX$X/.F & $ 2.j.m.z.P.T.T.T.T.T.T.T.T.T.T.T.Y.P.x.l.l.1.$ & T  .} } } } } } } } } $.$X+XW D T }  .! D 3 ",
"3 Y `.@X%X$X$X].$.E F W %X%X/.T = $ 1.j.j.h.z.~.!.~.!.!.!.!.!.!.~.!.P.B.f.l.l.0.f < T } } } } } } } } } } &.-X+X! D !  .^ ! F 3 ",
"1 Y ^.|.+X].+X].( L 4 T ).[.( F & 0 V 0.e.j.h.m.V.B.V.V.Z.V.V.V.V.V.b.b.k.g.y.S y 6 T E Q Q ! ! R ! R R E  .`./.Y D ! /  .! F 3 ",
"3 D Y R W W W Y F 5 4 5 L T D 5 - > u C 0.j.j.h.l.h.f.l.h.h.h.k.h.h.e.m.l.u.b r 6 4 4 F F D D F F D D D 5 G T Y D D !  .^ ! D 3 ",
"3 D R T F D Y ! W / W ! W W ! ! ! T 7 u N 8.1.,.<.<.<.<.<.<.<.<.1.1.1.8.9.A h 0 6 F T R D D L ! ! ! Q Q ! ! Q K D D ! /  .! D 3 ",
"3 ! {.|.E K /.#X&XoX+XoXoXoXoXoX%X).T 6 y h d t t f e f t t t % d d t t u h x x u U './.Y Y ).&X&X#X+X}.@X}.}.^.Y D ! ^ / ! F 1 ",
"1 ^ <X<X} Y `.=X=X>X3X<X>X>X3X3X>X[.U 6 p z g g u g g u t t t t d w @ 9 w j <.2.l _ '.'.Y ! &X9X8X2X2X:X2X1X5X}.! D / ..@./ G 1 ",
"2 } <X<X} D } $.$.[.>X>X'.'.>X>X{.o.I p :.v.v.c.t.9.9.9.t.9.1.1.1.x e w x ,.3.3.<.M i J 3 ! #X9X8X:X:X:X:X5X5X X! G | ^.^.| G 3 ",
"1 } <X<X} 5 ! } / @.{.XX@.@.oXoX .U p S v.A.A.Z.V.B.B.B.B.M.f.d.j.0.l h x ,.2.6.6.,.j # : ! &X8X5X:X:X:X:X:X5X{.T G +._._.+.Y 3 ",
"1 } ,X,X} 5 ! } / / '.@./ ^ @.( U z :.n.Z.Z.A.Z.V.B.M.B.B.M.f.p.d.e.5.V h k 1.w.6.2.B m q U  X5X2X:X:X:X:X:X5X XQ K +._._.+.K 3 ",
"1 } ,X,X} F ! } / / / / / / E U p ;.n.A.~.~.C.Z.B.M.M.M.B.l.h.f.f.f.j.0.l l 4.e.w.4.6.>.s p *.#X,X:X:X:X:X:X:X}.R K +._._.+.K 3 ",
"1 } <X8X} 5 ! }  ./ / /  .E 6 y :.n.V.~.R.R.C.B.M.M.M.M.B.M.B.l.m.l.j.e.5.5.e.d.i.i.6.2.>.b i ) #X5X:X:X:X:X5X XR K +._._.+.Y 1 ",
"1 R {.|.Q 5 T ! / ! / ! ! I q k v.A.A.~.R.P.x.m.M.M.B.b.y.t.9.9.9.9.8.<.<.0.e.j.d.i.6.3.6.>.s i *. X-X:X:X:X:X}.R G { +.#.{ G 3 ",
"3 F R R D 3 5 F G D G 3 * @ j <.N.A.A.C.L.L.B.M.M.B.B.v.b f e t t t d d g l 0.f.d.i.4.3.4.2.>.l 9 E  X5X5X5X;X XE 3 G K K G 5 3 ",
"3 5 5 D F G F F F D D 2 o $ 2.a.V.Z.Z.Z.M.M.M.M.B.M.y.Z w + w t g f d d g k A 0.s.i.6.6.4.4.3.B $ 2 {.5X6X8X5X#X{ 5 Y Q Q Y D 3 ",
"3 D T ! Q Q R ! Q Q } D & a S.U.W.Z.V.M.M.M.M.B.B.y.n # O # Z t.9.9.8.1.1.A k b 5.d.i.w.4.4.4.B $ 8 =XwXwXwXwX-X} K ^.#X@X_.Y 1 ",
"1 G ! } } } }  .} } { E > a S.U.W.Z.M.M.M.M.M.b.u.Z # X . # Z y.q.9.8.5.s.0.C b 5.d.d.i.6.3.4.V % 8 `.8X,X-X8X{.K E  X5X2X XQ 1 ",
"3 D ! } } } } } } } } ! > f r.x.Q.Z.M.M.M.B.B.y.n w O .   O # f g g h M 5.e.0.0.s.d.p.i.4.4.4.B % > L } } } } E D W }.1X1X}.W 3 ",
"3 G ! } } } }  .} } } E < d 1.k.M.V.M.M.M.B.B.y.C w O .   O # g g g g M 0.j.j.d.d.p.d.i.6.3.3.B % , 4 F 5 5 5 5 D Q _.@X@X^.Y 3 ",
"3 G ! } } } } } } }  .U > f <.f.f.h.M.M.M.M.M.b.v.N #     # N t.9.9.c.y.s.p.p.d.p.d.p.i.6.4.4.B % > L ! ! ! ! ! R ! @.+.$.{ G 3 ",
"3 D T ! R ! } ! ! ! ! L > e <.p.s.f.l.M.M.M.M.b.u.Z # .   # Z y.9.y.9.y.s.d.j.p.p.p.p.w.4.4.3.B % > E } } } } } } } } ! } R G 3 ",
"3 3 D D D D D G G D D 3 : t ,.w.i.f.M.M.M.M.M.y.C w O . . O # g g g g C 0.d.j.d.d.i.6.6.3.4.4.B d < T ^ } } / } } } / / } E F 1 ",
"3 F Y Q Q K 5 5 G K K F > e B 6.i.f.h.h.M.M.B.y.C w O .   O # e u f g M 0.s.5.0.s.i.6.3.3.4.4.B % 6 } $.$.$.$.$.$.$.$.$./. .K 1 ",
"1 Y ^.+X X^.Y G { %.+.} 6 % B 6.i.d.f.f.g.h.M.M.u.Z 0 X . # N y.q.9.8.0.p.5.C C 0.i.6.3.3.3.4.B % I ).=X$X$X$X$X=X$X$X%X$X[.T 1 ",
"1 Q  X5X5X XQ G O.^.^.| 6 t B 6.6.s.i.i.i.f.h.M.B.u.b # + # Z y.q.q.8.8.1.A n C 8.w.6.3.3.4.4.B d 7 '.+X+XoX|.|.|.|.+X+X+X).T 1 ",
"1 Q }.5X5X XQ D Q +.| ) 6 e B 4.6.6.4.w.i.f.l.M.B.b.y.Z 0 # w g h g f f g l A 5.6.6.3.3.3.3.4.B d > L ! R W Q Q W Q Q Q ! T D 3 ",
"1 Q  X:X5X}.Q 8 ` ] X.T < e B 3.4.4.4.6.i.d.h.M.M.B.B.u.b u g e t e t t g b 0.p.6.3.3.3.3.4.6.B % < 4 K K G K K K K K K G D D 3 ",
"1 Q  X5X5X XR c F.K.] T > % B 6.5.4.w.i.i.d.g.f.M.M.B.b.v.9.9.9.7.1.1.1.1.0.s.s.5.3.3.3.3.4.6.B % > } +.+.+.+.+.@.@.+.+.+.^ D 3 ",
"1 Q }.5X1X}.W c J.E.[ R 4 q M >.3.6.i.i.s.d.d.s.h.b.M.h.B.h.B.l.f.d.d.d.d.s.i.6.6.6.3.3.4.2.>.x q P $._._._._._.^.%.^.(.].^.R 1 ",
"1 Q  X5X5X}.Y J =.=.o.} Q U p l <.6.6.6.s.d.d.d.d.f.g.f.f.f.f.d.d.d.d.i.w.6.6.4.4.3.3.3.6.>.s w I } &._.`._._.^.$. .} %.#X|.! 1 ",
"1 Q }.5X5X.X' v @.%.O.) ] ` ~ y M >.2.6.w.p.p.p.i.p.p.w.p.p.d.d.d.d.i.i.4.3.3.3.4.3.3.2.>.M q 7 R ..%.%.%.^.%.#. .} @.'.XX).Y 1 ",
"* { }.5X5X4XE.F.[ | ( ] K.K.` L r j >.6.6.w.6.6.6.6.6.w.6.w.s.d.d.p.i.6.4.4.3.3.4.4.6.>.s r 8 E } } } .. . . . .} @.XX|...Y F 3 ",
"1 Y }.:X5X4XE.F.' { ^ ' H.H.[ Q 4 q l B B B B B B B B B B B 1.1.1.<.V B B B B B B B B b r 7 } { } } } } } } }  .@./.}.^.Y 1 3 3 ",
"1 {  X5X5X.X] v ) } { X.' [ X.^ Q P q % e e e e % e e % e e t f f d e % % w % % e % % r I } } } } } } } } } } @.|.|.@.K 5 3 3 3 ",
"; Y }.5X5X}.Q 5 W } } X.' [ ) X.' ` 6 + = = = = = = = = = = = = : : = : : + : : : + : > L } E E ! ! Q Q R R R  .`./.K 1 1 3 3 3 ",
"1 {  X5X5X}.{ 3 ! ^ ( ] H.H.[ [ H.F.p - * ; 2 2 2 1 2 1 1 1 1 2 2 2 2 2 2 2 2 2 2 2 1 1 5 D D 5 F F D D F 5 5 G T T 5 1 1 3 3 5 ",
"1 Y %.#X5X].) 1 / } { ' H.H.' [ H.F.c D W ! W Y D 3 3 3 3 7 c v ) Q G D G 5 G G G G K K K K Y K K G 5 D R } ! Q Q ! } { Q Y F 3 ",
"3 5 K +.#X XQ G O.%. .X.] [ X.X.' ` 8 Y ^.+X+X/.W 1 3 3 3 c D.E.-._...} Y } Y E ! } ..#.+.+.+.#.+.{ 5 ) {.,X X{.|.#X*X,X*X(.Y 3 ",
"3 F K +.#X XQ K +.^.+.} } ^ } } | ^ D Q +X1X*XXX` c P D D v J.E.4X}.@.} } } } } }  .#.%.^.^._._._.+.G } 8XwX5X;X:X5X0XqX7X XQ 1 ",
"1 Y %.#X5X XQ K +._.^.#.| ^ }  .#.O.G ! +X*X`.[ G.F.` W W ) ] [ o.@...} } } } } } }  . ...@.%._._.+.G { ,X0X5X5X:X:X5X5X5X XQ 3 ",
"1 W }.:X:X XQ K +._._.^.$. .}  .$.O.G ! +X$X^.' K.H.[ | } ^ { ^ { } } } } } } } } } } } } ..%._._.+.5 { 8XqX5X5X:X5X:X5X5X XQ 1 ",
"3 K ^.@X;X@XQ K +._._._.^.$. .}  ./ D W +X$X$.X.' [ X. .{ } } ^ } } } } } } } } } } } } } ..%._._.+.G { 8X0X5X5X5X5X5X5X5X}.} 1 ",
"3 G { ^.}.(.K G { +.+.+.+.O.^ ! ! T D Y ).`. .W W W ! E Q Q ! ! ! ! ! ! } E ! ! ! ! } E Q { O.+.+.{ 5 ) {.=X X X].{.}. X X%.Y 1 ",
"3 5 G Y W Y D 5 K K K K K K G F D D 3 F Y Y G D D D D F G F F G F G D G D G D D D G D D 5 G G K K G 3 G { } Y { { Y Q Q Q Y 5 3 ",
"3 3 3 3 1 1 3 3 3 3 3 3 3 3 1 3 3 3 3 3 1 3 3 1 D 3 3 3 3 3 1 3 3 1 3 3 3 3 3 3 3 3 3 3 3 3 3 3 3 3 3 3 1 ; 1 1 1 ; 1 3 1 3 3 3 "
};
