/* XPM */
static char *result[] = {
/* columns rows colors chars-per-pixel */
"64 64 186 2 ",
"   c #041E35",
".  c #052337",
"X  c #05253A",
"o  c #052A3E",
"O  c #04303E",
"+  c #062641",
"@  c #062B43",
"#  c #052E4A",
"$  c #053345",
"%  c #05314D",
"&  c #08314F",
"*  c #043A4E",
"=  c #062F50",
"-  c #063453",
";  c #083553",
":  c #073857",
">  c #093A56",
",  c #063759",
"<  c #093759",
"1  c #063A5A",
"2  c #093B5A",
"3  c #063C61",
"4  c #093F61",
"5  c #083E68",
"6  c #084047",
"7  c #08434A",
"8  c #044A4E",
"9  c #094C4F",
"0  c #094752",
"q  c #044C53",
"w  c #094D52",
"e  c #07455E",
"r  c #084058",
"t  c #084D5A",
"y  c #045354",
"u  c #095053",
"i  c #05525A",
"p  c #0C6E5F",
"a  c #054165",
"s  c #0A4164",
"d  c #06456D",
"f  c #09456A",
"g  c #064A6E",
"h  c #094C69",
"j  c #095464",
"k  c #075A65",
"l  c #0A576C",
"z  c #074774",
"x  c #054B75",
"c  c #0A4B74",
"v  c #064E79",
"b  c #0B4E7A",
"n  c #06527F",
"m  c #0B517C",
"M  c #0C6E61",
"N  c #0C7165",
"B  c #0B7368",
"V  c #086473",
"C  c #04697C",
"Z  c #0BA723",
"A  c #0BA927",
"S  c #0BAC2C",
"D  c #0DAF37",
"F  c #0DAF38",
"G  c #0BB33C",
"H  c #0EB544",
"J  c #08B946",
"K  c #0FB355",
"L  c #0BBF5A",
"P  c #10BD5A",
"I  c #0F866F",
"U  c #0F8670",
"Y  c #0F8A75",
"T  c #0F8D79",
"R  c #108D7A",
"E  c #029C7B",
"W  c #11AE77",
"Q  c #11AE78",
"!  c #11B07A",
"~  c #06C65F",
"^  c #0CC35D",
"/  c #10C05A",
"(  c #06C760",
")  c #04CF6F",
"_  c #11C36A",
"`  c #12C86D",
"'  c #05CF71",
"]  c #13C97E",
"[  c #04D071",
"{  c #094E81",
"}  c #065483",
"|  c #0A5585",
" . c #0B5788",
".. c #065989",
"X. c #055A8B",
"o. c #0B5A8C",
"O. c #075F93",
"+. c #0D5D90",
"@. c #065E99",
"#. c #07668B",
"$. c #07728A",
"%. c #097088",
"&. c #0B6196",
"*. c #06619B",
"=. c #0B659C",
"-. c #0A689E",
";. c #047993",
":. c #087D9C",
">. c #0C67A2",
",. c #076CA7",
"<. c #0B6AA5",
"1. c #0D6DAA",
"2. c #106DA5",
"3. c #0676AD",
"4. c #0E73AE",
"5. c #0F74B1",
"6. c #0B76BA",
"7. c #0B7CBD",
"8. c #1077B4",
"9. c #1179B6",
"0. c #117AB9",
"q. c #0C7EC1",
"w. c #107FC1",
"e. c #039F80",
"r. c #129E94",
"t. c #03A283",
"y. c #0EAC86",
"u. c #02A68A",
"i. c #04A98C",
"p. c #13A784",
"a. c #12AA85",
"s. c #12AC88",
"d. c #05B78B",
"f. c #01BC8D",
"g. c #0FBA8D",
"h. c #13B58C",
"j. c #13B98E",
"k. c #04AE95",
"l. c #0FBB90",
"z. c #03B39D",
"x. c #0A87A8",
"c. c #078DB7",
"v. c #1085B2",
"b. c #0592BD",
"n. c #0995BC",
"m. c #1190B7",
"M. c #02B6A0",
"N. c #04B8A5",
"B. c #0FCE82",
"V. c #14CD83",
"C. c #14CE89",
"Z. c #06D987",
"A. c #03DC8A",
"S. c #13D184",
"D. c #14D18B",
"F. c #16CD9A",
"G. c #07DD91",
"H. c #0ADA9E",
"J. c #16D69C",
"K. c #14DA9C",
"L. c #01E193",
"P. c #15C0A7",
"I. c #15C2A8",
"U. c #0BDEA3",
"Y. c #16D7A2",
"T. c #14DCA2",
"R. c #05C5B8",
"E. c #05E7A6",
"W. c #0BE4A6",
"Q. c #02E9A5",
"!. c #05E7A8",
"~. c #0CE7A8",
"^. c #03ECAA",
"/. c #08E9AA",
"(. c #11E1A4",
"). c #00F1AD",
"_. c #0C82C5",
"`. c #0D88C6",
"'. c #0E84C9",
"]. c #1181C2",
"[. c #1286CB",
"{. c #0998C5",
"}. c #118CD5",
"|. c #128FD9",
" X c #1291DB",
".X c #0EA1CE",
/* pixels */
"X o X X X X . . X X o X X X o X X X X X X X X X X X o X X . . . X . . . . . . . . . . X X X X . X X X . X X X X X X X X . . X X ",
"X X X X X o ; > & @ @ @ @ @ o X @ # @ @ @ @ @ @ @ @ o @ 2 2 2 2 1 : 1 1 1 1 1 1 : 1 4 : @ @ # % % % % % % % @ @ @ $ @ % : - @ X ",
"X X o X . ;  .+.f > > 2 2 ; @ o < 2 2 2 2 4 2 2 2 & o < +.4.2.2.-.>.*.=.=.=.*.*.>.,.9.&.< # a v x x x x v d 4 2 2 2 2 f o.} - . ",
"X X X o ; c &.=.b s s s s 2 @ @ 2 s s s s s s s s < @ 4 4.}.[.].v.q.q.q.7.q.q.c.v._. X0.r % x ..X.X.X.X.} m f s s s 4 b ,.*.1 . ",
"o X . & | &. .c f s s s s 2 @ @ 2 s s s s s s s s 2 @ 2 >.].].].v.7.7.7.7.7.7.7.7.'.}.9.s # x X.X.X.X.} c f s s s s s b 1.*.1 X ",
"X @ ; c &.=.c 4 s s s s s 2 @ @ 2 s s s s s s s s > @ 2 *.q.w.].q.7.7.7.7.7.7.7.7.'.}.9.2 % n O...n n b f s s s s 4 4 b ,.*.: X ",
". -  .=. .c f s s s s s s 2 & @ 2 s s s s s f 4 4 < o > *.6.q.].q.6.7.7.7.7.7.7.7.q.|.9.s : &.<.n g f f f s s s s s 4 b 1.=.1 X ",
". : o.=.c 2 s s s s s s s > @ @ 2 s s s s 5 4 h V l $ > @.7.w.w.7.7.7.7.7.7.7.7.7.'.|.0.r ; o.&.c r s s r s s s s s c o.,.*.: . ",
". # f b s 4 4 s s s 4 4 4 < @ @ 2 s 4 4 s 4 5 l i.E q , @.7.q.].7.7.7.6.7.7.7.7.7._. X9.4 @ f c f 4 4 4 4 s s 4 2 c &.1.w.@.<   ",
". & f m m m b b b b b b { f # & f b b b b b c %.N.k.y : >.'.[.`.'.'._._.].`.n.n._.'. X9.4 @ f b m m m m b b b b m o.5.w.w.@.< + ",
". >  .2.1.1.1.1.2.2.2.2.2. .; ; o.1.1.<.2.>.>.8.n.:.r 2 1.}. X X|.|.|.|.|..XR.R..X|. X5.4 - ..1.2.2.2.1.1.1.1.1.1.5.0.w.w.>.<   ",
". ; | >.>.>.-.>.=.=.2.2.2.| ; & | 2.v.m.m.m.m.v.>.{ % - &.5.8.8.9.9.9.9.0.x.k.k.x.9.5.+.; % } =.>.>.=.=.=.=.-.>.=.=.=.=.>.| ; X ",
"X @ ; 2 2 2 : : 1 : : 2 2 ; @ + % l r.I.P.P.P.r.l # + @ , 1 3 2 r s 4 s 2 a i i s s 3 : + X - 1 < < < 2 , 1 2 : < < < 2 < ; @ . ",
"X o o @ @ @ @ @ : : : % + . . o 6 N g.(.W.T.K.j.M 6 o @ = , , , : % @ X - * + X @ % # * q y * # & ; < 2 < - + @ 9 q $ @ + + + X ",
"X o ; > 2 < < f o.=.*.n &     7 U g.H.Q.Q.W.T.F.j.U 7 - { @.@.@.@.} # - | | - @ a x x C i.u.C x z n &.>.<.| - 8 E t.k 2 2 ; @ X ",
"X # 2 s s s 4 b &.1.=...j w w N j.W.^.Q.L.Z.] D.K.a.w = ..3.c.c.3.X.1 1  .| ; @ a v x C u.u.$.{ }  .*.,.>.| # 8 E t.k < 4 2 @ X ",
"X # 2 s s s s f c c 2 j T a.a.j.H.^.).L.~ J G ^ D.s.u @ 5 %.N.N.%.c 4 2 < ; @ o # # # * q i h z f f 3 : 2 - X @ 9 q $ # 2 2 @ X ",
". @ 2 s s s s s s < + w a.(.(.W.Q.Q.L.[ G Z Z G _ Q M 0 < l e.e.k ; < > 0 w u u w u u u w 0 < 2 2 > 0 u w w w u w 8 u 0 r < @ X ",
"X o > s s s 4 s s < X 9 a.(.~.^.^.L.~ G S Z Z A G K Q R 0 @ 9 9 $ + + w Y s.s.a.s.s.p.a.a.Y 0 X + 0 U a.a.a.s.p.a.a.a.Y 0 @ o X ",
"X & f m c b b c s > 0 N h.K.!.Q.L.[ G Z Z A A Z Z G ` ! p w 9 w w w u p W S.S.S.V.C.S.S.S.! p 0 w B j.K.D.C.J.Y.J.Y.(.h.u . X X ",
". - X.1.1.1.1.X., 0 Y j.F.T.^.L.( G S Z A A A A A S G K W s.s.a.s.s.s.W K H H H H H H H H K W s.s.h.F.C.P P V.Y.J.Y.T.h.u . . X ",
". - } *.-.=.=.{ - u a.T.T.H.G.) G Z A A A A A A A A Z G _ C.V.V.C.V.C._ G Z Z A Z Z Z Z Z F _ C.V.C.V._ D H ] J.Y.F.h.Y 0 @ X X ",
"X @ - : 1 1 , - X w a.(.W.A.~ G S Z A A A A A A A A Z S G H H H H H H G S Z A Z A Z A A A S G J H H H G A H V.Y.Y.h.M 0 r < @ X ",
"X @ : : @ X - - @ w a.(.!.A.G Z Z S A A A S A A A A A A A Z A A A Z Z Z Z S A Z S A Z S A A A A Z Z Z Z Z H V.Y.T.a.9 + 2 2 @ X ",
". : &.&.< & | | ; 9 p.(.!.A.J Z Z A A A A A S A A A A A A A A A Z A A A A A A S A A A A A A A A Z A A Z Z H V.Y.T.a.0 + 2 2 @ X ",
". s 0.0.s < +.+.; 9 a.T.~.A.~ G S A A A A A A A A A A A A A A A A A A A A A A Z A A A A A A A A A A A A Z H V.F.j.R t : s 4 @ X ",
". s 0.0.s @ f f # u a.K.T.H.G.[ G A A A A A A A A S A A A A A A A A A A S A A A A A A A A A A A A A A A Z H V.h.N t h v } d % X ",
". f 0.0.4 @ 2 > @ w a.Y.K.W.^.A.J A A A A A A A A A A A A A A A S Z S Z Z A Z S S A A A A S A A A A A S G L C.s.9 # c X.X.x * X ",
". s 0.0.s @ < < @ w a.K.W.^.^.A.J A Z A A A A A A A A A A A S A S A Z S A S Z A A A A A A A A A A A A G ' G.T.p.0 # x X.X.z # X ",
". s 0.0.s o ; ; X w y.T.Q.^.Q.A.J Z A A A A A A A A S A A A A A Z A A A A A S A A A A A A A A A A A A J Z./.W.y.q # x #.;.C - . ",
". s 0.v.s X @ o   w a.T.Q.).^.A.J Z A A A A A A A A A A A A A A A A Z A A Z Z A A A A A A A A A A Z Z H V.W./.d.y # x ;.M.t.y . ",
". < =.=.2 . . o 0 N h.T.!.^.).A.J A A A A A A A A A A A A A A A S A S A A S A A S A A A A A A A A A Z H B.W.^.f.y @ 3 C u.E q . ",
"X @ > > @ . . 0 U j.F.T.!.^.^.A.J A A A A A A A A A S A A A A S Z A Z Z S Z S Z A A S A A A A A A Z A J Z.^.).f.y X @ - y 8 O X ",
"X X o @ @ @ @ w T h.F.T.W.^.^.A.J Z Z A A A S A A A A A A A A A S A S A Z S Z S A Z Z A Z S Z S S Z Z J A.).).f.i X = < , - @ X ",
"X @ ; 2 2 2 2 > w B h.J.T.U.^.A.J A A A A A A A A A A A A A A A Z A S A A A A A A S S A A S Z A S A Z J A.).).f.y - } <.,.} - . ",
"X @ 2 s s f s < + w a.Y.J.H.Z.) J A A A A A A A A A A A A A A A A A Z A S A Z S A A Z A A A A A Z Z Z J A.^.^.d.y r :.{.`.>.: . ",
"X # 2 s f s s 2 + u a.T.Y.C.L G A A A A A A A A A A A A A A A A A A A A Z A S Z A A S A A A A A S Z Z J A.^.~.a.w q k.R.b.*.: . ",
"X @ 2 s s s s 2 % 0 Y j.F.C.P F S Z A A A A A A A A A S A A A A A A A S A A A A A Z Z A A Z S A A Z Z J A./.Y.Q 9 q E z.3.} - . ",
"X @ 2 f s s f s 2 > 0 N h.Y.C.P H Z A A S A A A A A A A A A A A A A A A A A A S A S S A S Z S Z S Z Z J A.^.(.a.w $ k V n a % . ",
"X @ ; 2 2 2 2 2 2 ; X 9 s.T.Y.V.H Z A A A A A A A A A A S A A A A A A Z S A A Z A A Z A A A A Z Z S G ~ L.^.(.a.9 + < s e 1 @ X ",
"X o o @ @ @ @ $ @ + . q a.Y.Y.V.H Z A A A A A A A A A A A A A A A A A A A S A A A A A A S Z A S A H [ L.Q.Q.(.a.u X < 4 4 < @ X ",
". @ ; 2 1 - o o # % # i T h.F.V.K F S A A A A A A A A A A A A A A A A A A A A A A A A A A A A Z Z J A.).^.U.g.R k 4 c m m f & X ",
". < } -.>.| - @ a v v g t M h.J.C.P H A A A A A A A A A S A A A A A A A A A A A A A A A Z A A A Z J A.^.~.j.N j o.2.1.1.2.o.< . ",
". > -._._.-.: # d } v g e p h.Y.T.C.H A A A A A A S A A A A A A A A A A A A A A A S A A S A A A Z J Z.U.l.U 6 = | >.>.=.>.| ; . ",
". 1 >.q._.>.: # s s - t Y h.F.Y.Y.C.H Z A A A A A A A A A A A A A A A A A A A A A A A A A A Z Z Z H B.g.B 7 o X - < 1 : 2 < @ X ",
". 1 *.q.c.*.1 X % < 0 M h.J.C.V.C.P H Z A A A A A A A A A A A A A A A A A A A A A A A S A A S S G ~ D.a.w . # % % % % % # @ o X ",
". 1 =.c._.-.2 X X 0 U j.I.D.K H H H D A A A A A A A A A A A A A A A A A A A A S A A A A A A A G [ G.K.a.u @ a v x x v x x s @ X ",
". 1 =.q.q.-.: o 7 B j.K.D._ F Z Z Z A A A A A A A A S A A A A A A A A S A A A A A A A A A A Z J A.!.W.a.8 % x X.} n n } &.} ; X ",
". 1 *._.q.>., 7 U l.F.D.P G A Z Z A A A A A A A A A A S A A A A A A A A S A A A A A A A A Z Z J A.^.(.p.w % v } c f f m 2.&.2 . ",
". 1 =.q.v.=., q a.K.D._ F Z Z Z A Z A A A A A A A A A Z A A A A A A A A A A A A A A A A A S G ~ L.^.(.a.w # d b f f c  .&.o.< . ",
". 1 *._.q.=.: u a.D.P D S Z Z Z Z Z A A S A A A A A A Z Z A A A A S A A A A A A A S A A Z G ) L.Q.^.(.a.w @ 2 f s c =.&.f ; @ . ",
". , *.c.q.=.: 8 s.D./ H H H H H H G S Z Z A Z A A S H J J G S Z Z A A A A A A A A A A A Z J L.^.^.H.j.Y w # 2 f c ..&.| ; . X X ",
". 1 *._.v.>.: y a.K.D.C.C.V.V.V.V._ F Z Z Z Z Z Z G [ A.L.' G Z Z A A A A A A A A A A Z Z J A.^.W.j.N 0 r 2 4 b =.&.c - o X X X ",
". 1 =._._.*.1 7 Y s.p.s.a.h.F.Y.Y.D.P H J J J J J ~ L.).).L.~ J J G S Z A A A A A A A S H ( L.Q.T.a.0 X ; 2 < f +.| % . . X o X ",
". : >._._.-.1 O 7 u w w w N h.T.Y.J.C.B.Z.A.A.A.A.G.Q.^.^.Q.G.A.A.' G Z Z Z A A A A A G [ L.Q.!.H.p.u . X @ @ % < ; X . . X X X ",
"X - } ,.6.*.r X @ @ @ + + w Y a.a.h.F.(.~.^.!.!.Q.Q.Q.Q.^.E.Q.^./.L.^ J J G S A A Z A G [ L.Q.Q.(.a.u @ < 2 2 : < 2 s s r - @ X ",
"X o % z ,.-.2 @ s z 2 : < 2 w w w N h.T.(.T.T.T.T.U.Q.Q.W.T.Y.T.(.K.D.V.C._ G Z Z Z Z S G ~ G.^.(.a.u < &.5.<.*.=.-.5.5.4. .: . ",
"X @ - v ,.>.1 % x | v h s 2 # @ @ t T a.a.h.F.J.J.T.W.Q.K.Y.J.F.h.a.a.s.a.W K H H H H H G ^ G.U.l.I 6 r 0. X'.q.v._.}.|.'.,.1 . ",
". - } ,.7.=.: % x X.} n f 4 2 3 d g t w 9 M h.T.Y.Y.T.T.K.Y.T.h.N w w w w M W S.S.V.V.C.S.D.K.C.B 6 o a 0. X'.7.q.q._.`._.-.1 . ",
". : *.q.v.-.: % x X.X.} c f s f n z # X = j T s.a.a.a.a.a.a.s.Y 0 + @ + + w Y s.s.s.s.s.s.a.s.R t @ X s 8. X'.q.q.q.7.7.q.>.1 . ",
"X - } ,.7.*.1 % v X...X.} n f f g r @ ; | &.l q u u u u w w u 0 2 2 2 2 2 > w u t u u w i w w i g a @ s 0. X`.v.q.q.q.c._.-.1 . ",
"X @ a n *.} : @ a x x x v z e < 2 & @ < | | ;   . . . . X . X @ < 2 2 2 2 < + . . X . X . . . @ d a $ : &.4.<.=.=.=.*.-.-.} - X ",
"X o $ - 1 - @ o @ % % * % % @ @ @ @ X @ ; < @ X X X X X . . . o @ @ @ @ # @ X X . X X X X . X o % # @ @ : a 1 1 1 1 1 1 1 - @ X ",
"X X X . . X . o X X . X X X X X X X X X . . X X X X X X o X X X X X X X X X X X X X + X X X X X . X X X . . . . . . . . . . X X "
};
