/* XPM */
static char *result[] = {
/* columns rows colors chars-per-pixel */
"64 64 100 2 ",
"   c #070504",
".  c #080605",
"X  c #0A0807",
"o  c #040A0E",
"O  c #0D0C0C",
"+  c #100F0E",
"@  c #12100F",
"#  c #040D12",
"$  c #0C0F11",
"%  c #051017",
"&  c #0B1115",
"*  c #05121B",
"=  c #0A141A",
"-  c #151515",
";  c #181717",
":  c #1A1817",
">  c #131A1F",
",  c #1B1B1B",
"<  c #051722",
"1  c #081720",
"2  c #061924",
"3  c #0A1A24",
"4  c #051C2B",
"5  c #0A1E2A",
"6  c #101C24",
"7  c #051F30",
"8  c #0A202E",
"9  c #052336",
"0  c #092334",
"q  c #05253A",
"w  c #0A273A",
"e  c #05283E",
"r  c #0A293C",
"t  c #112532",
"y  c #112C3C",
"u  c #212121",
"i  c #062C44",
"p  c #0A2E45",
"a  c #052F49",
"s  c #082F48",
"d  c #0B3047",
"f  c #05314C",
"g  c #09324C",
"h  c #063552",
"j  c #093652",
"k  c #063857",
"l  c #093857",
"z  c #063A5A",
"x  c #093A5A",
"c  c #093F61",
"v  c #054165",
"b  c #0A4164",
"n  c #05466C",
"m  c #09456B",
"M  c #06486F",
"N  c #09486F",
"B  c #054C75",
"V  c #0A4B74",
"C  c #074E79",
"Z  c #0A4F7A",
"A  c #104D74",
"S  c #07517D",
"D  c #0B507D",
"F  c #065483",
"G  c #0A5585",
"H  c #085885",
"J  c #0B5788",
"K  c #055A8B",
"L  c #0B5A8C",
"P  c #075F94",
"I  c #0B5D92",
"U  c #0C6295",
"Y  c #06629A",
"T  c #0B659C",
"R  c #0A689E",
"E  c #116597",
"W  c #116598",
"Q  c #0767A3",
"!  c #0C67A1",
"~  c #0669A6",
"^  c #0B6AA4",
"/  c #0D6DAB",
"(  c #116EA6",
")  c #0E71AF",
"_  c #0E73B1",
"`  c #0C76BA",
"'  c #0B7DBD",
"]  c #1077B3",
"[  c #1179B7",
"{  c #117BBA",
"}  c #067AC1",
"|  c #0C7EC1",
" . c #107FC1",
".. c #0C81C4",
"X. c #0D84C9",
"o. c #1181C3",
"O. c #1386CB",
"+. c #128CD4",
"@. c #128FD8",
"#. c #1292DB",
/* pixels */
"q q e q i 7 7 7 i 7 7 i 7 i 7 i w 7 i 7 q q q q q q q q 7 7 i 7 7 i 9 9 9 9 9 9 q q 9 9 q q q q q q q q q q q q q q q q 9 q q q ",
"q q q q q i z x f a i i s i i q p d p i s s i i p i q i j c c x x x z z z z z z z z c k i e f f f f f f f f i i a i i a h h i q ",
"q q e q 7 h J I N x x c x j i i j x x c x c c c c g i x W ) ( ( P ! T Y T R T Y R R ] E k i v B B M B B B M c x x x x m K F f q ",
"q q 9 i h V W W Z c c c c l i i c c c m c c c c c x e c ) @.O. . .| | | | ' | ' ' X.#.[ c f B K K K K K H C m b b b c D / Y z q ",
"e q 9 h J U J A c c c c c c i i x c c c b b m b c c i z Q  . . .' ' ' ' ' ' ' ' ' X.#.[ v f M K K K K H B m b b b b c Z / T z q ",
"q i j N P T V c c A c N c c i i c b m c b b c c c x i k Y }  . .' ' ' ' ' ' ' ' ' ..@.] c f S U H S S C m b b b b c c Z ~ Y z q ",
"9 h J T J A m c c N c c c x i i x c m b b c b b c x i k Y }  . .' ' ' ' ' ' ' ' ' ..#.] c h U ^ S m N m b b b b b c c Z ~ Y z 9 ",
"q k L W V c c c c c c c c x i i c c c b c b b c c c i x Y }  . .' ' ' ' ' ' ' ' ' X.#.[ c h L E B c c c b c b c b b V L / Y z 9 ",
"q g c c c x c c c c c c c x p i x c c c c c c m m x i k Y ..o.o...' ' ' { ' ' ' ' ..#.{ c i m V c c c c c c c x c V I _ } Y x 7 ",
"q j Z D G G Z Z G G A G G c s s m Z G D Z A x g g d 0 d D T W E U U U U E E E U U E ( U k a b S G Z Z G G c G G Z L _  . .Y x q ",
"q j J / / / / / ( / / / / L j j L ) ) / ) J p 6 6 6 > 3 t y y y y y y y t y y y w y y y w h K ) / / / / / / / / ( ) {  .} ! x 7 ",
"q j G ! ! W ! ! W ! W ! ! G h h J T U U W A t @ - : ; - - - @ @ @ - - - : : @ @ O O O $ 8 g S R W ! W ! W ! ! ! T ! W ! ! J j q ",
"q i j x x x x x x x x x x h i i h h r 0 w t > : : , , , , ; ; - : : , , , , : : - @ - @ & 3 f z x x k k x k z z x x x x x j i q ",
"q e e i i s i a h x h h j h a i 0 < & O + @ : , u u u u u , ; , , u u u u u u , : : , , @ $ * 9 i j k x x h i 7 q q e i e e e q ",
"q i j x c c c c J Y Y Y Y I c h 5 - - - @ @ ; , u u u u u , ; , u u u u u u u , : , , , - O o 8 z F I / ! J j q 7 i j x x j i q ",
"q a x c c c c c Y / Y ! } ) c w = @ - : : : : : , , u u u , , ; , u u u u u u : : , , , - @ X 1 h G Q / _ I j 7 q s c c c x i q ",
"q i x c c c c Z Z V x V / ! d > @ @ - ; - : , , , , , u u , ; , , u u u , , , , , , u u ; - + $ < e c J G c g 7 e s c c c c i q ",
"q i x c c c c c c x i f Z V 5 X + - - - ; 6 , , , , , , , , - - , , , , , , , , u u u u , ; - O O % w j c c c g i i c c c c i q ",
"q i x c c c c c c x i q 0 5 = + @ - - ; : u u u , , ; , ; - - - ; ; ; ; , , , , u u u u , , ; - + + = 8 j V I J h i x c c x i q ",
"q s c G G Z D G m x w < $ O @ ; ; ; - ; , , u u u > - - - - - - - - - - - - , , u u u u 6 , ; - - + O = i c / ! c e x c c x i q ",
"9 h J / / / / I Z j 2 # + @ - : , , : : , u u , , - - - - - - - - - - - - - - , , u u u u , ; - - @ @ $ % d T ! x i c c c c s e ",
"9 h J Y Y Y Q J c q & X + @ ; : , , , : , , , , ; ; ; - ; ; , , ; ; ; ; - , , - : u , , , , , - ; ; ; - O 5 A G h i c c c c i e ",
"q i h k k x k a 4 # $ @ @ ; , u u u u , , ; ; ; ; ; , , , , u , u , , , , , , - : : ; ; , , , , , , , ; @ & 5 7 q i c c c x i q ",
"q i k k i e h i #   $ @ @ ; : 6 u u u 6 ; - - ; ; , , u u u u u u u u u , , , ; , ; - ; ; , u u u u u , ; + X o 4 a c c c x i q ",
"9 z Y ! x g J G 2 . O @ ; - ; , , u u , , - - - , , u u u u u u u u u u u u u u , , : ; : , , u u u u , ; +   # 4 a c c c z a q ",
"9 c  .} c x I J 7 X + - ; : ; , , , , : ; - - , , u u u u u u u u u u u u u u u u u : ; , , u u u u , , ; + . # 4 a c c Z c a q ",
"w c _  .c g N c 3 X @ - : , , , , , ; ; - ; , , u u u u u u u u u u u u u u u u u 6 ; - : , , u u u 6 : @ @ X # 7 f c G F C a q ",
"0 c [ _ c q s w = O - : , u u u , ; - ; - ; , u u u u u , u , , u u u u u u u u u , ; - ; ; , , , , ; ; ; - O $ < i F K P c f q ",
"7 c [ [ c 7 < = & @ : , u u u u , , ; - - ; u u u u u , , , , , , u u u u u u u u , : - - ; ; ; : , , , , : - + # 7 c K K c k e ",
"w c [ ` c 5 o . + ; : u u u u u u , ; - - ; , u u u , , ; - - > , , , , u u u u u , : ; - ; ; ; : , u u u , ; O   7 c K K C f q ",
"q c  . .c 4 o X + ; 6 u u u u u 6 , : - - ; , u u u , ; ; ; - ; ; , , ; > , u u u u ; - - - : , , u u u u , - $   4 c P K C f e ",
"q x W ! c 7 # X + - : u u , , , u : : - - ; , u u u , , ; ; ; ; ; ; ; , , , , u u 6 ; - - - : , , , u u u 6 ; $   * k C C c a q ",
"q i x k i 4 o . O - ; : ; , ; , ; ; - - - ; , u u u u , 6 , , , , , , , , u u u u , ; - - - ; , ; , , u u , - @   % q f f a e q ",
"q e e s i q # . $ - ; , , ; , ; ; - - - - , , u u u , , u , , , , , > , , u u u u u ; - - - - , ; , , , , , - O   % i z z h i q ",
"q i g x z a % . O - , , > u u , 6 , ; - - ; , u u u , : : : , ; , , ; , : , u u u , ; - - - > , u , , , : - - O   8 B ~ ~ H h q ",
"q i l m m g *   O ; , , u u u u u u ; - - ; , u u u , , : , ; ; , ; , ; ; , , u u , ; - - - , u u , , ; , - - O   8 Y ..X.Y z 9 ",
"q i x b b g %   O ; , u u u u u u , : - - - , u u u , u u , , u , , u , u u u u u , ; - ; ; , u u u u , , , - O   4 K } } Y z q ",
"q s l m m j 8 % & @ : , , u , , : : - - - - , , u u u u u u u u u u u u u u u u , , ; - ; , u u u u u u , , - O   4 C ~ ~ F h q ",
"q s x m m c l r = O - ; ; ; ; , , - - - - - ; , , u u u u u u u u u u u u u u , , - - ; , , u u u u u , , ; - O   * z Z C v a q ",
"q i g l x x x f = X + - - ; ; : , , - , - - - ; , , u u u u u u u u u u u u , , ; - - ; , u u u u u u , ; - $ $ # 4 j b b k i q ",
"q e e i i i a q % O + - - - , , , , , , , - - - ; , 6 u u u u u u u u u u , , ; - - - > , u u u u u , , ; + O % e j c c c j i q ",
"q i h z k h e 8 & . + - - - , u u , , , , - ; ; ; ; , , , , , , , u , , , , , - ; ; ; ; , u u u u u u , ; +   1 x G Z Z G m s q ",
"q h F Q R H h 8 # . O - - ; , u u , , , , , , , ; ; ; ; : ; ; ; ; ; ; ; ; ; ; ; , , , , , , , u u , , - - O   4 G ) ) ) / I j q ",
"9 k R ....R z 9 < & $ @ & - : , , , , , , u u , ; ; - ; ; ; - - - - - - - - ; : , u u u , , , , , , - - + O o 7 Z ! ! W ! G j q ",
"9 z R ....Y z e d w = X + - - - , , , , u u u u : , : ; - ; - ; - - - - - - > u u u u u u , , ; , - - O X # 1 q h z x z x j i 9 ",
"q z R ' ' R z a b c 0 = O O - - - , , u u u u u u u : : ; @ ; : , ; - , - , , u u u u u u , ; ; - - + $ 1 0 s f a a a a s i i q ",
"9 z R ' ' R z f M B x w % O # - - ; , u u u u u u u 6 ; ; ; : , , , , , - - , u u u u u u , ; - - + O = h M B B B B B B B c a 9 ",
"9 z R ' ' R k f B G B l 4 & O O - - , u u u u u u u u , ; , , u , u , , - , , , u u , , , , ; & $ $ = i M P K K F F F K P F h 9 ",
"9 z R ' ..R k f B S N c j y & X @ - ; 6 u u u u u , , , , u u u u u , ; - - ; , , , , ; ; ; - +   = h B H K K F V m m D ^ U x 9 ",
"9 z R ' ' Y k a M S N b b l 8 % $ @ - : , , , u u , : : : u u u u , ; - - - - ; , , ; ; - @ + $ & 9 n F F F S S m m V J W J j q ",
"q z Y ' ..R z a c n b b b v k r = + - ; : ; , , , , 6 : u u u u u , ; - - - - - ; ; ; - - $ O * w l m N m m m m c V U U N h i q ",
"9 z R ' ..R z e k v b b b b b l 7 = - ; : : : ; , , : : : , , 6 , ; - - - $ - - ; ; ; - - X X * g m b b b b b m V G T J h 9 q q ",
"9 z R ..' R z e x b b b b b b b x p = O : : 6 ; : - - - - - - - ; - - - - @ - - > , , - $ X . * j m b b b b b V ! U M h q q q q ",
"9 z R ..' R z a x b b b b b b b c j 6 $ @ @ @ - + + O $ + O $ $ O O O $ O O O $ - - - @ X   o = s x x z x j l m I G h 7 9 q q q ",
"9 z R ....Y k e j b b b b b b b c c i 5 O X O X X . .                         X O O X X   o * 9 e i s s i i i a j j i 9 q q q e ",
"q h S ^ ' R k e c m b b b b b b c x p 7 0 7 7 3 % o o # # o # % 8 8 * * * * * * = 1 * 8 8 8 f f f a q i k x z z z x c c z h s q ",
"q i f M ~ R z a M C m c b b b b c c i f Z I I F i 4 4 4 4 4 4 a B S x g g g g g g l v n n n M C B v a k E ] R R Y ! ] ] ) H h q ",
"q i f B ^ R z f C S B n b b b b M c i c ! } _ I z i a s a i i c Y R B b b b m m b N S S S H K K K B a c { #.X.' ' X.+.@.O.^ z q ",
"q f H ^ ' R z a B H S S m c b m F c a z ! ) L N c z c x z x c c M B m m b b b b b b N N M B S K K B f c [ #.X.' ' | ..X...R z q ",
"q z Y ' ' R z f B K K H B m b N F c a k ! / Z c c c c m c c c m b c b b b b b b b b b b b N S P K B f c [ #.X.' ' ' ' | | R k 9 ",
"q f S ~ ' R z f B K K K H S m b c c s c ! ) G c m c m c c m c c b b c b b b b b b b b b v n S K K B f c [ #.X.' ' ' ' ' ..R k q ",
"q a v H Y K f a v B B B B n c x x j i h G I c x x x x c x x x x x x x x x x x x x x z x x c B B B v e k U ) ^ R R R R R R F f q ",
"q e a f k f e e f f f f f g s i s i i p j j f i i i i i a i i a i i i s i i s s i i i i e s f f f a e a k c z z z z k z z h i q ",
"q q q q 9 q e q q q q q q q q q q q 7 7 i 7 7 i 7 i 7 i q q q q q q q q q q q q q q e q q q q q q q q q 9 9 q 9 9 9 9 q q q q q "
};
