/* XPM */
static char *result[] = {
/* columns rows colors chars-per-pixel */
"64 64 138 2 ",
"   c #020101",
".  c #080606",
"X  c #020609",
"o  c #03090D",
"O  c #0A0A0A",
"+  c #100F0F",
"@  c #12100F",
"#  c #030D13",
"$  c #0B0E11",
"%  c #020F18",
"&  c #031017",
"*  c #0E1214",
"=  c #04121B",
"-  c #0A141B",
";  c #0F181D",
":  c #151515",
">  c #181716",
",  c #1A1817",
"<  c #141A1D",
"1  c #1B1B1B",
"2  c #20201F",
"3  c #041621",
"4  c #041926",
"5  c #0A1B25",
"6  c #041D2C",
"7  c #0A1E2B",
"8  c #191D20",
"9  c #051F31",
"0  c #0F202B",
"q  c #1D282E",
"w  c #052336",
"e  c #092333",
"r  c #05253A",
"t  c #08273A",
"y  c #05283E",
"u  c #0A293D",
"i  c #152631",
"p  c #122B3B",
"a  c #232323",
"s  c #2C2C2C",
"d  c #33312F",
"f  c #282C30",
"g  c #202F39",
"h  c #333333",
"j  c #383736",
"k  c #34393C",
"l  c #3A3A3A",
"z  c #403B38",
"x  c #43403F",
"c  c #062C44",
"v  c #092F47",
"b  c #052F49",
"n  c #082F48",
"m  c #05314C",
"M  c #08324D",
"N  c #11344B",
"B  c #11384F",
"V  c #18394D",
"C  c #063552",
"Z  c #083552",
"A  c #063857",
"S  c #093857",
"D  c #063A5A",
"F  c #093A5A",
"G  c #123B55",
"H  c #173F58",
"J  c #283B47",
"K  c #343F45",
"L  c #3E3F40",
"P  c #093F61",
"I  c #15415D",
"U  c #18415B",
"Y  c #2A414F",
"T  c #394044",
"R  c #344048",
"E  c #3F4548",
"W  c #234155",
"Q  c #2A4353",
"!  c #2A485B",
"~  c #384C57",
"^  c #354C5B",
"/  c #054164",
"(  c #0A4164",
")  c #05466C",
"_  c #09456B",
"`  c #06486F",
"'  c #09486F",
"]  c #134362",
"[  c #054C75",
"{  c #0A4B74",
"}  c #074E79",
"|  c #0A4F7A",
" . c #07517D",
".. c #0B517D",
"X. c #2A4C62",
"o. c #2B5E7B",
"O. c #424242",
"+. c #065483",
"@. c #0B5585",
"#. c #085885",
"$. c #0A5788",
"%. c #055A8B",
"&. c #0A5B8D",
"*. c #195E8B",
"=. c #075F93",
"-. c #0B5D91",
";. c #0C6296",
":. c #06629B",
">. c #0B659C",
",. c #0A689E",
"<. c #176393",
"1. c #1D6A97",
"2. c #166698",
"3. c #0767A3",
"4. c #0C67A1",
"5. c #0669A6",
"6. c #0B6AA4",
"7. c #0D6DAA",
"8. c #106DA5",
"9. c #186FA0",
"0. c #0E71AF",
"q. c #1573A8",
"w. c #0E73B1",
"e. c #0C76BA",
"r. c #0B7DBD",
"t. c #1076B1",
"y. c #1179B7",
"u. c #067AC1",
"i. c #0B7EC1",
"p. c #107FC1",
"a. c #1A80BB",
"s. c #0C81C4",
"d. c #0D84C9",
"f. c #1182C4",
"g. c #1386CB",
"h. c #128CD4",
"j. c #128FD8",
"k. c #1292DC",
/* pixels */
"r r y r r r r 9 c 9 9 c 9 r c 9 w r r w r r w r r 9 c 9 w 9 w w w w w w w w w w w w w w w t w r r r r w r r w t r r r r w r r r ",
"r r r r r c C F b b c n n c c c c v c b c n b c b c r b F P P F D D D D D A D A D D / A c y m m m m m m m m n c c c c m C C c r ",
"r r y r 9 C $.-.' F F F F Z c c C F F F F P F P F C c Z -.q.8.8.,.>.>.,.,.,.,.,.,.6.q.;.A c / [ [ [ [ [ [ ` ( F D F F ( %.+.C r ",
"r r w c C { 2.2.{ P P _ P Z c c F ( _ ( P ( P ( P F c P 0.h.g.f.i.i.r.r.r.u.r.r.s.d.k.r.( m [ %.%.%.%.%.+.} _ ( ( ( ( ..5.,.D w ",
"y r w C $.;.@.{ { P P _ P P c c F ( ( ( ( ( ( ( P P c D 3.p.g.p.a.r.r.r.r.r.r.r.r.d.k.y./ m [ %.%.%.%.+.[ _ ( ( P P P | 5.4.D w ",
"r c C ' -.>.| P P P _ P P P c c F ( ( ( ] U I H P F c F :.i.p.p.r.r.r.r.r.r.r.r.r.r.a.1.H B ..-.+. . . ._ ( ( ( P P P | 5.>.D w ",
"w C $.>.$.{ _ P P P _ P P F c c F P ( ] J R R Q H F c Z =.u.p.p.r.r.r.r.r.r.r.r.r.q.o.~ k ! 2.6.+.( ) ( ( ( ( ( P P P | 5.4.D w ",
"r A &.2.{ P P P P P P P P F c c F ( ( I R O.L Q P P c F 3.u.p.p.a.r.r.r.r.a.r.r.s.9.^ z l ! <.>.[ ( ( ( ( ( ( F P _ { &.0.=.D w ",
"y Z P P P F F F _ P P P P P c c F ( ( I R T W ] ( D b D :.i.f.f.s.s.a.s.a.s.a.r.a.9.X.j g N _ { P P P P P P P P P | ;.w.u.-.F r ",
"r F P @.@.| @.@.| @.| @.@.P n n _ { ] W K K V Z Z c 9 c [ ;.;.;.=.%.:.%.&.&.:.:.,.*.~ k u b ( ..@.| | | @.| | | | -.7.p.p.>.F 9 ",
"r Z $.7.7.7.7.7.8.7.7.7.7.$.Z C -.<.X.T O.j q 5 - % o # 4 9 6 6 6 6 6 6 6 e e p Q ~ E k p C &.8.7.7.7.7.7.7.7.7.7.0.e.p.u.4.F r ",
"r Z $.2.4.4.4.4.2.4.2.4.4.@.M Z @.*.^ x L l s : O                             @ d x O.k g G #.>.4.2.>.>.4.2.4.4.4.2.4.4.4.@.C r ",
"r c Z F F F F A A D F F F C y c C H K x O.O.l s +                             : d O.O.L k Y S / F S S F A A F D F F F F F Z c r ",
"r y y c n n c b C D C F F C m y e i k T O.l l a +                           X : h O.x l j f 0 w c Z A F F Z y r r r y c y y y r ",
"r c Z F P P P P $.:.:.=.:.-.P C 5 8 h O.x h a : .                           . : h O.O.k 2 @ o 4 D $.:.4.4.$.C r r y Z F F Z c r ",
"r n F P P P P P >.7.:.4.u.7.P u - 1 h O.O.h 1 O                             . : h O.O.d *     & m | 3.w.w.-.C 9 r c P P P F c r ",
"r c F P P P P | { { F { 7.>.v $ O > h O.O.h 1 O . . X . . X . . X . . . X . O 1 h O.O.h :     X % y P $.@._ v w w b F ( ( F c r ",
"r c F P P P P P ( S c M ..{ 5   . : h O.O.h a 1 : < : : > : > < : < : > : : 1 a l O.O.h : .     X # r C P P F C c c P ( ( P b r ",
"r c F P P P P P ( F c r e 5 o   . : h O.O.l j h h j h l h j h j h h h l h h h l L O.O.h < .       X # 7 Z { -.@.C c F ( P F c r ",
"r b P @.@.| @.@._ F r 3 o       X : h O.L O.O.O.O.O.O.O.O.O.O.O.O.O.O.O.O.O.O.O.O.O.O.h > .           # t _ 5.3.D c Z P P F c r ",
"r C $.7.4.3.7.:.} Z 3 X         . : d L L O.O.O.O.O.O.O.O.O.O.O.O.O.O.O.O.O.O.O.O.O.O.h > .             o c >.6.F c P _ _ F c c ",
"w C $.:.4.:.4.$.P w #           . : s l l L j h h h j h l h h h j h h l h h h l l O.T h < .               4 { ..Z c F P P P c 9 ",
"r c C C D D A n 4 #             X : s l L j a 1 : : : : 1 : : : : : 1 : : : 1 a l O.x h > .               X 3 e 9 n P P P F c c ",
"r c F A y y C c #                 : s l L h 1 O . . . X . . X . . X . . . . O 1 h x O.h < .                   o 6 b P P P F b 9 ",
"w D 4.-.F C $.| 5               . : s l l d : X                             . : d l O.h < .                   o 6 c P P P D c r ",
"w P p.u.P F -.@.9               . : s l l s : O                             O : s l L h < .                   o 6 n P P | P m 9 ",
"9 P y.y.P b ' P =               X : s l l s 1 O X . . O O . . O . O . O . . O 1 s l k d > .                   o 6 m [ +.+.` m r ",
"u P w.p.P t v e #               . : s l l h a 1 > : : : : : : > : : : : : < 1 a h l l d : .                   X 3 c [ %.%.} m r ",
"9 P y.y.P 9 3 # X               . : d j h h h s s s s s s s s s s s d s s s d h h l l s : .                     X 9 ) %.%.[ m 9 ",
"y P y.e.P 7 o                   O : s h f h j l l l l l l l l l l l l l l l l l l l h s : .                       4 P =.%.[ m c ",
"r P p.p.P 6 o                   X : a h h h h l l l l l l l l l l l l l l l j l l h h s : X                       4 P =.=.[ m 9 ",
"9 P 2.>.P 9 o X                 O : a h d s h s h s s s s f d s f s s s s s f d j h h a : .                       = D [ [ P b c ",
"r c S F c 4 o                   . : a d f s a 1 > > : : > > : : > > : : : : < a h l h a : X                       # w C b b c w ",
"r t y c b w #                     : s f d s > O . X . . . X . O . O . . . O O 1 s h h a : O                       # c P D C c r ",
"r c Z F F c #                   . : a d d a : .       X                     O : s h h s : .                       4 } 5.5.+.C w ",
"r c F ( _ C %                   X : s d f s : O X                     X     O : a h s a : .                       6 =.i.i.3.D w ",
"r c F _ _ M &                   . : s s d s > $ O . O O . O o . O O O . O O * 1 a h d a : O                       9 %.u.u.=.P w ",
"r c F ( ( Z 6 #                 O : a f f s 2 1 > : : : : : : > : : : : : > 1 a s h s s : O                       4 } 5.5.%.C r ",
"r c F _ ( P Z r #             . . : a d s d s s s a a s a s s a a a a s a s a s f h h a : O                       3 D | +.P b r ",
"r c Z F F F P b #               . : a s s d s f s d d f d d f d d h h f d s d s s d s a : O                     # 6 C P P D c r ",
"r r y c c c c w #               O : a s s s s s s s s s s s s s s s s s s s s s s s s 2 : X                   # w Z G P P F c r ",
"r c C A D C y e $               X : a s a s a a a a 2 a a a 2 a a a 2 q 2 a a a s s s 2 : O                   3 F @.@...@.P n r ",
"r C #.6.3.+.C 6 o               O : 2 s s a 2 1 : : : : : : : : : : @ : : : > q a s s 2 : O                   4 @.w.7.7.7.&.F 9 ",
"w D ,.s.s.,.D e 3 # .           O : 2 a s a 1 + O . O O . . o . . O O . . O + 1 a s a 2 : O                 X 9 { 4.4.4.4.$.C r ",
"w / :.s.s.,.A r b t #           . : 2 a a a : O X           X             . O : a s a 2 : O               X 3 w m P D D F C c r ",
"w D ,.s.s.,.A b ( F e #         O + 1 a a a : O .                   X     . O : a a a 1 : O           X = 9 c C m b m b n n c r ",
"w A :.s.a.,.A m ` [ F t #       O : 1 2 a 2 1 : * O O O $ O O O O O O O O O : 1 a a 2 1 : O .         & m ` [ } [ [ [ [ [ P b 9 ",
"w A :.a.s.,.A m [ +.{ Z 6 # X   O : 2 2 8 a 2 1 > : > > > , > > 1 : 1 : : 1 1 a 2 2 2 1 : O       X & y [ =.%.+.+.+.+.+.=.@.C r ",
"w D ,.a.s.:./ b [ +.' ( Z t o   $ > 1 2 2 2 2 2 2 8 a a 2 a a a a a a a a a s a a 2 2 8 : +       # C [ +.&.%.+.[ _ _ ..8.;.F w ",
"w A :.s.a.:.A b `  ._ ( ( Z 0 & @ : 1 a a 2 2 2 2 2 a s s s s a a s s a s s a a a 2 2 1 > + .   o w ) +.+... . ._ ( { $.;.$.Z r ",
"w A :.s.a.,./ c / ) ( ( ( ( C u ; @ 1 a 2 2 2 8 2 2 a a a a a a a a a a a a a a 2 2 2 2 > +   & r S / ` _ ' ' _ ( { >.;.' Z c r ",
"r / :.a.a.:.A y A ( ( ( ( ( ( D 9 ; , 1 2 a 2 2 2 2 1 1 1 1 1 1 1 1 1 1 1 1 1 2 2 a 2 8 : + . = M _ ( ( ( ( ( ( { #.;.$.C w r r ",
"w A ,.s.a.:.A y S ( ( ( ( ( ( ( F c < : 1 a a 2 1 1 : : : : : : : > : : : > 1 1 2 q 2 , * O . = M _ ( ( ( ( ( { >.;.` C c w r r ",
"e / ,.a.s.,./ c S ( ( ( ( ( ( ( P S 7 * : , , , : + + $ O O + O O O O O O @ @ : > 1 , > + . o = v F F F S F S _ -.@.C w w w r r ",
"w D ,.s.s.,./ y S ( ( ( ( ( ( ( P P u 5 $ O O O O . X   .                     . O + O O . o = w y c c c c c c m Z C c 9 w r r c ",
"w m +.5.r.:.C y ( _ ( ( ( ( ( ( P F n r 9 0 9 5 % o X o X o o % 4 4 - = & & = = - - 5 5 = e b C m b y c S F D D D F P P P C c w ",
"t y m [ 5.,.D b ) } _ ( ( ( ( ( P P m m +.-.-.@.c 6 6 7 6 6 6 b } +.F M n Z b M M S / ) ) ) [ [ [ / c Z ;.r.5.:.>.6.t.y.7.$.C r ",
"r y Z [ 7.3.D m [ +.{ ) ( ( ( ( P P b P 4.u.e.;.P c c b c c c P -.>.} ( ( ( ( ( ( '  .+.+.+.#.%.%.[ m / y.k.d.a.r.s.h.j.g.6.D w ",
"r C +.5.y.,.A m [ #.+.} ( ( ( _ +.P b D >.0.$.P P D P P P D P P { } _ ( ( ( ( ( ( ( _ ' _ } +.%.%.[ b / y.k.s.a.r.i.s.d.s.,.D r ",
"w A :.r.s.:.A m [ %.%.+.} _ ( _ +.P b F 4.7.@.P P P P P P P P P ( P ( ( ( ( ( ( ( ( ( ( ( _  .%.%.[ b / y.k.s.a.r.r.r.i.s.,.D w ",
"r m +.5.r.,.A b [ %.%.%.+. ._ ( P P b F 4.7.@.P P P P P P P P P P P P P ( ( _ P ( ( ( ( ( ) +.%.%.[ b / y.k.d.a.a.s.u.a.s.,.D w ",
"r b /  .:.+.C b / [ [ [ [ ` / F F Z c C $.$.P F P P P P D D P P P F P F P F F F F D F F D / ` [ [ / y I ;.0.6.,.:.:.:.,.,.+.C w ",
"r y m C A A c c m m m m m m n c n y y c Z F b n c n c c c c c b c n n c c b c n n c c c c c b m m b y c A / / A / A D D D C c r ",
"r r r r w w w r w r r r r w t w r r r r r 9 r y 9 r r r c 9 c 9 c 9 r r r r r w r r r r r t r r r r r r w w w w w w w r w w r r "
};
