/* XPM */
static char *result[] = {
/* columns rows colors chars-per-pixel */
"64 64 69 1 ",
"  c #052337",
". c #05253A",
"X c #05283E",
"o c #062C43",
"O c #052F49",
"+ c #05314C",
"@ c #08334E",
"# c #063553",
"$ c #083552",
"% c #063857",
"& c #093857",
"* c #063A5A",
"= c #093A5A",
"- c #063D60",
"; c #0A3F61",
": c #054165",
"> c #0A4164",
", c #06476E",
"< c #09456B",
"1 c #06486F",
"2 c #09486E",
"3 c #054C75",
"4 c #0A4B74",
"5 c #074F7A",
"6 c #0B4F7A",
"7 c #06527E",
"8 c #0B507C",
"9 c #065482",
"0 c #0B5684",
"q c #0D5987",
"w c #0C5788",
"e c #055A8B",
"r c #0B5A8C",
"t c #065F96",
"y c #0B5D91",
"u c #066097",
"i c #0C6296",
"p c #06619A",
"a c #0B659C",
"s c #0A689E",
"d c #10669F",
"f c #106A9F",
"g c #0667A3",
"h c #0B67A1",
"j c #076AA6",
"k c #0B6AA4",
"l c #076AA8",
"z c #0D6DAA",
"x c #1066A1",
"c c #106BA3",
"v c #106DAA",
"b c #0E71AE",
"n c #0E74B2",
"m c #0B77BA",
"M c #0B7CBD",
"N c #1174B3",
"B c #1178B6",
"V c #117ABA",
"C c #0679C0",
"Z c #0C7EC1",
"A c #117EC1",
"S c #0D82C5",
"D c #0E84C9",
"F c #0F88CE",
"G c #1281C3",
"H c #1286CA",
"J c #118CD5",
"K c #128FD8",
"L c #1291DB",
/* pixels */
"..X... .....................            ..  .. ..... X XX X.... ",
".... o$%Oooooo.ooOooooo@ooXo=====&&*******;%XX+#++++++OXOXXO#$XX",
"..X. $wy2====$oo&====;=;&&o&yNvchaasssspssBi=X:3333351;====<e7%.",
".. o$2dd4;;<<=oo;;;0;;;;;&X;NJHAZZMMMZMMMHKB>+3eeeee75<>>>>8ls% ",
"X. $wiw4<>>>;=oo;;;;;;;6;;o*xZAAMMMMMMMMMSKB;O3eeee75<>>>>;8zs* ",
".o$2ii4;;>>>>=oO;;;;;;;;;=o*gCAAMMMMMMMMMSKB;+7u7775<>>>>;;6jp* ",
" $wdw4<;>>>><=oo;;;;6;;;;=o&pCAAMMMMMMMMMSKB-%ic7<<<>>>>>;;6jp* ",
".%ra4;;;;>;;;=oo;;;;;;;;;;o&pCAAMMMMMMMMMSKB;#ri5;;>>;>;>>2ebs* ",
".@;4;;;;>;;;;=oo=;;;;;;;;=X%gAAAMMMMMMMMMSKB;o<4;;;;;;;;;4yNmd* ",
".@;9066688660<OO;90906;90;O*lALASSSSSSSSSFKB;o<5096696668qnAZp* ",
".#rzvvzzvvvvvr$$rzzzxvvzzr#-vKALKKKKJKKKKKLn-$ezxvzzvvzlzbBAAt* ",
".#0hddddxdaah0$$0xxddddax9@#yNNCBBBBBBBBBBni#$7sdxdxydddsdaax0#.",
".o@*;==*****&$oo$=====-*%@XX#--;=;;;-;;;-;:%XX#%***%&***;***-@o.",
".ooooooo$&**&#OoooooXoX@#=**%#%#%+XX+#XXoOOO#O#OO##*-$o   oooo..",
" o@*;==;rttptw;*--=-===;rxppppppp7@$0q$o:555553339tlxw$  o#=&$o.",
" o;;;;;6tzthmv9;;;;;;;;4alllllxvje*-ie%O177777779rhbbr#  o;;;*O.",
".O=;;;;46;;4vv6;;;;;4;;68w6666ww64>>4<+o;2222222<4699;O  O;;;-O.",
" o-;;;;;;=O=xv0;;;;;;;;;4;;;;;;;;>>>>=oo=>;>;>>>;;;;;;-@oo;;;;O.",
".o=;;;;;;=o=xz6;;;;4;;;;;;;;;;;;;>>>>&oo=>>>>>>><;;;;4y0@o&;;=o.",
".@;06600;&o=xl6;;;;;;;4;;;;;;;;;>>>>>=oo=>>>>>>>;;;;;9zh-o&;;=o.",
" #rzzlzt6=o=xv0;;;;;4;;;;;;;;;;;>>><>=oo=>>>>>>><;;;;0bh=o;;;;O.",
" #9ppapw;@X@ww>&==;=;;;;&&;=;=;;=====$oo$========;&&&<rw$o;;;;O.",
".o@***-@@. o$$ooooooOoOoo@o@oooooooooo..oooooooooooooo$$oo=;;=o.",
".o*#oX@-=========&o ......   XX .....o&&OO&$Xo@===&****$oo;;;=O.",
" -dy&@0hxxxxxddxxw$   .    . .. .....&qy<<r0$$qccsagsgg9$o-;;;@X",
" -VV>$rvbNAVNNVAAw=oo@@o@o@oooXXoOooo=yd48vx*=fHHSZCCZCs=o-;;;O.",
".;VV>o<88wNNwwNNr6;=;;;;=;&=;$oo$====;44<8zd==sHGMMMMZSs=O;999+.",
" ;VV;o&;;4di44yd;;;;;;;;;;;;;=oo=><>>>>>=6za&*cGMMMMMMMa=O9ee;+.",
" ;BV>o&>;;04;;86;;;;;;;;;;;;;;oo=>>>>>>;;8va*&fGMMMMMMZa*+3ee9#.",
".;BB;o=><;;;<;;;;4;;;4;;;;;;;;oo=>>>>>>>;8za*&fGGMMMMMMa%+3ee;+.",
" ;AB>o&>;;;;;;;;;;;;;;;;;;;;;;oX&>>>>>>;;8za&*fGMMMMMZCg*+9tp;#.",
" *ad=o@=;=;=;=;=;;;;;;;;;;;;;;o@<4<;>>>>;8va*&fGMMMMMmZp%O-;9-O.",
".O==oXooooooooXoooOooXoooooXoX.&id4;>>>;;6vx&*fGMMMMMMMs* o++OX.",
"..XooooOooOoo+##$O.o&=@Xoo+#@o.-vBr4<;;<4rzt&*vHHSSSSDDc-X#**@o.",
".o$=====&=&=&<eu7:o&ff2&*;133:O-kZBd4>;4tNmt%-NKKKJKKKLn-@0jke# ",
".o=>>>>>>>>>>8zBj7+>VGq>;19ee3+#yBAv0>;6vACt%$yNBBBBBVVi%%sSSg* ",
".O=><>>>>>>>>8cGBr%-BGq>>27ee3+O<rBBr3>8vZmt%o$->;>;;>>&o%pCmp% ",
".o=>>>>>>>>>>4ibbr@>BG8>;27ee3+X&4abhr28xAmt%X$$OXXXXXXoo*egge#.",
".O=>>>>>>><>><6882O>VG8;;27ee5+o&>4rbk46vZmt%+0y<&&&&=&=*;435:O.",
".o$===========&=&@.>VGq;;<7e91Oo=>=4aa44vCmt#%yy4>>>>>>>;;;;>&o.",
".XXoooooooooooXoo..>MG8>;<995-oo&>;>44>4vZmt%O<4<;;;;;;;;>;;;=o.",
".o#**#oXO+++++OXOX.>BG8;><55<&oO2888678rbAMt%O<66660669666666<@.",
".@0ss9@O:53551-=*@X>VGq>;>22>&o*ybnbzzzbmZmt%#rlvvvvvvzzzvvvvr& ",
".&sSSs*O170777,:>&o>VG8;;><>>=o#ekkghkhaapt9O$0ahhtdhhhhhhhhh0$.",
".*sSSs*o;<22<<<>>=X>VG8>;<86<=oo$********&%@oo#*&***%*****%=&#o.",
" *pSZs*o;<>;>>>>>=X>BGq>><68<=o.oooooooooO$=*#+O@OOOOOOOOO@OOOo.",
" %pMMs*O25<>>>>>>=X>VG8>>><2>=oo@*======&;yxgi933333334333333-o.",
".*sSMs*O88<>>>>>>=X>VG8>>>>>>=oo$*>>>>>>;6hmmly999eeeeee997et9$.",
" *sMMs%+372>>>>>>=o>BG0;>>>>>=O.X$;>>>>>;3esse5,;69eeee932<0va& ",
" %pSMs%+17<>>>>>>&X>BG0;>>>>>=O.XX=><>>>>>5775>>;2390055<>4wy0& ",
".%sMSs*O:<>>>>>>>=o>BG0;;>>>>=o..X=>>>>>>><<,>>>;<<2<<<<;4ay2$o.",
".*sMSs%X&>>>>>>>>=X>BGq;>>>>>=o.XO;>>>>>>>>>>>>>;;;;<;;<40a0$ ..",
".%sMSs%X&>>>>>>>>=o;VGw;;>><>=o..X;>>>>>>>>>>>>><;;;;;;6aa,@....",
".%sSMs:X&>>>>>>>>&o=ax2&=====&o. X$==;=======;===-*&==$<y0$ ....",
" %sSSu%X=>>>>>>><&oo&=OoooooooX...XOOXOXXXXOXXXXooooOooO$$o ....",
".#7kMs%X;2>>>>>>;&oo$&*#o......o$&@XXOXOOOO$+##+$Ooo=;&&%&;;*%o.",
".X+3bs*O,5<>;>>>>=o$0hh0$ ... .&qy2=&====;1533553:X%iBssakbVbr$ ",
".X#3js*+375,>>>>2-o=hmby=oooooo=yi4>>>>>>27777eee3+;VLDMMSJLFs* ",
".#7bMs*O3e77<>><5,O=hby2>======>34<>>>>>>><2237ee3+;VLDMMZSDSs* ",
" %uMMs*+3ee73<><5,O*dz6;>>><>>>>;>>>>>>>>>>>>27ee3+;BLDMMZMMSs* ",
".#7jMs*O3eee75<>2=o*hv6;>>><<><>>>>>>>>>>>>>>,7ee3+>BLFMMMZSZs* ",
".X:7s7%X:33352>=&$o#0r2=============;&&;====&:333:X%insssspss9# ",
" X+#*%XXO+++++XXoo.o&&@oooooooooOoOooooOXOOXXOO+#OXO*-*******#o.",
"XX .   XX X ..XX..... ....................X...X    X          .."
};
