/* XPM */
static char *result[] = {
/* columns rows colors chars-per-pixel */
"64 64 231 2 ",
"   c #00070B",
".  c #00080C",
"X  c #090E11",
"o  c #09141C",
"O  c #211D1C",
"+  c #031C2C",
"@  c #001F35",
"#  c #042336",
"$  c #05253A",
"%  c #05283F",
"&  c #262B2E",
"*  c #453A33",
"=  c #012740",
"-  c #062B43",
";  c #052F49",
":  c #05314C",
">  c #0A334E",
",  c #063553",
"<  c #083551",
"1  c #063857",
"2  c #083857",
"3  c #043758",
"4  c #063A5A",
"5  c #093A5A",
"6  c #133A53",
"7  c #063E62",
"8  c #093F61",
"9  c #133E63",
"0  c #0F445F",
"q  c #12415D",
"w  c #284659",
"e  c #314C5C",
"r  c #3F515B",
"t  c #054165",
"y  c #0A4164",
"u  c #05456C",
"i  c #09456B",
"p  c #09496B",
"a  c #09486F",
"s  c #144666",
"d  c #044671",
"f  c #054B75",
"g  c #0A4B74",
"h  c #064E7A",
"j  c #0A4F7A",
"k  c #154B77",
"l  c #06527E",
"z  c #0B507C",
"x  c #245F69",
"c  c #345265",
"v  c #3C5A6C",
"b  c #2C5673",
"n  c #26626A",
"m  c #336E6E",
"M  c #32627A",
"N  c #40525B",
"B  c #575C5E",
"V  c #63584E",
"C  c #415764",
"Z  c #415A69",
"A  c #415F72",
"S  c #5F676C",
"D  c #446679",
"F  c #44667A",
"G  c #6A6360",
"H  c #877D76",
"J  c #508F73",
"K  c #65A779",
"L  c #065482",
"P  c #0A5585",
"I  c #0A5887",
"U  c #055A8B",
"Y  c #0B5A8C",
"T  c #035F96",
"R  c #0B5D91",
"E  c #145B90",
"W  c #215A91",
"Q  c #1E7186",
"!  c #0B6296",
"~  c #05629A",
"^  c #0B659C",
"/  c #0B689E",
"(  c #10669F",
")  c #3B6986",
"_  c #30749A",
"`  c #1357A9",
"'  c #195EB2",
"]  c #0C67A1",
"[  c #0669A4",
"{  c #0B6AA4",
"}  c #0D6DAA",
"|  c #1269A5",
" . c #0C71AF",
".. c #0B6DB4",
"X. c #0D74B2",
"o. c #0D77B8",
"O. c #0B7CBD",
"+. c #1273B3",
"@. c #1179B6",
"#. c #1076BE",
"$. c #117ABA",
"%. c #2E67AB",
"&. c #306AAD",
"*. c #2976AF",
"=. c #336EB3",
"-. c #3A75BA",
";. c #456C83",
":. c #446D8A",
">. c #46738E",
",. c #4D77AB",
"<. c #0663C8",
"1. c #006ACF",
"2. c #166FCB",
"3. c #0C7EC2",
"4. c #0979C5",
"5. c #017ACE",
"6. c #0065D4",
"7. c #0669D2",
"8. c #0E69D3",
"9. c #226DC8",
"0. c #2E77C4",
"q. c #2C73CB",
"w. c #3578C9",
"e. c #37B69A",
"r. c #1190B1",
"t. c #348DB3",
"y. c #2FB3AC",
"u. c #5D859D",
"i. c #6B9094",
"p. c #62B488",
"a. c #4A8AB2",
"s. c #5782B5",
"d. c #54ABB7",
"f. c #56C696",
"g. c #49C5B5",
"h. c #66D1A4",
"j. c #0C81C4",
"k. c #0D85CA",
"l. c #088EC8",
"z. c #1182C5",
"x. c #1386CA",
"c. c #049AC9",
"v. c #0F8ED9",
"b. c #178ED8",
"n. c #0193D1",
"m. c #019FD3",
"M. c #0F90DC",
"N. c #1096D0",
"B. c #1291DB",
"V. c #3883CA",
"C. c #3497D1",
"Z. c #08A3CE",
"A. c #1DADC5",
"S. c #01A0D3",
"D. c #0DA3D4",
"F. c #16A5D5",
"G. c #29B4C1",
"H. c #30AAD2",
"J. c #3AB3DD",
"K. c #558DC7",
"L. c #4598C4",
"P. c #439BCC",
"I. c #668DC1",
"U. c #6D96CA",
"Y. c #48A6D6",
"T. c #44B0D5",
"R. c #6FB5CF",
"E. c #76BEE8",
"W. c #58C3C9",
"Q. c #72C1D6",
"!. c #76C8E3",
"~. c #8D9EA7",
"^. c #90A4B1",
"/. c #98AEBC",
"(. c #AAACAF",
"). c #B9B2A5",
"_. c #B8B2A6",
"`. c #CBB5A1",
"'. c #C2B8AC",
"]. c #C2BBB1",
"[. c #C1BFB9",
"{. c #8ACE81",
"}. c #92D882",
"|. c #A5D79D",
" X c #89E598",
".X c #90E692",
"XX c #A6EF88",
"oX c #A9F48A",
"OX c #B3FA8B",
"+X c #B8F699",
"@X c #ADDDB0",
"#X c #A9E9AF",
"$X c #C1FB9D",
"%X c #C4C3BE",
"&X c #EDD3BC",
"*X c #D3F1BC",
"=X c #9CB9C7",
"-X c #98B5CF",
";X c #A5BDCA",
":X c #92D3CC",
">X c #BCC9C7",
",X c #B6CAD7",
"<X c #A6D8EA",
"1X c #B5D6E6",
"2X c #BDE3F0",
"3X c #C3C5C2",
"4X c #C5CAC9",
"5X c #C8D4CA",
"6X c #C6D4D5",
"7X c #D6D3D3",
"8X c #DCFBC9",
"9X c #E3E6C0",
"0X c #FEE1C7",
"qX c #FFE4CA",
"wX c #FFE8CE",
"eX c #E3E7DA",
"rX c #FDE6D2",
"tX c #FFEBD4",
"yX c #FFECDB",
"uX c #FFF3DE",
"iX c #C1DCEA",
"pX c #CAE6EE",
"aX c #CEE7F3",
"sX c #E9F8E6",
"dX c #FEF1E4",
"fX c #FEF5ED",
"gX c #EFF7F9",
"hX c #FEF6F1",
"jX c #F7FBF6",
"kX c #FFFAF4",
"lX c #FEFDFC",
/* pixels */
"$ $ % $ $ $ $ $ $ $ $ $ $ $ $ $ $ $ $ % $ $ $ # # @ @ @ # # # # # # # # @ @ @ @ # # # $ $ $ # $ $ $ # $ $ $ $ $ $ $ $ $ $ $ $ $ ",
"$ $ $ $ $ - < 2 > - - - ; - - $ - - - - - - $ 6 e Z Z c y t 4 4 4 3 3 6 c v Z c q 1 4 4 - % : : : : : : : : ; - ; - - ; < < - $ ",
"$ $ $ $ # < I R i 5 5 5 5 < - - < 5 5 5 5 4 3 M ^.4X4X-X-.[ { ~ ~ ~ ~ t.-X4X4X/.t.^  .! 2 - t f f f f f f a 5 2 2 4 2 i Y L , # ",
"$ $ $ - < g ! ( g 8 y y i 6 - - 5 i y y s 7 7 :.6XlXlXaXE.Y.Y.Y.P.P.C.R.pXlXlXiXP.j.B.@.y : f U U U U U L l a y y y y z } ^ 4 # ",
"$ $ # > P ! P g i 8 8 i 8 5 - - 5 y y i y t t :.,XlXlXgXaXiXiXiXiX1XiXaXgXlXlXiXP.j.B.@.y ; f I U U U L g p y y y 8 8 j [ ~ 4 $ ",
"$ - < g ! ^ g 8 9 8 i 8 i 2 - ; 5 y y y y 4 t :.6XlXkXhXlXlXlXlXlXlXlXjXfXfXkX2XC.j.v.@.4 : l ! I l l f i y y y y 8 8 j [ ] 4 # ",
"$ < I ! P g i 9 y y i 8 s 5 - - 4 y y y y t 7 ) ,XkXyXyXhXlXlXjXlXlXlXhXyXdXkXiXP.j.v.@.y , ! { z i i i y y y y y 8 8 j } ~ 4 # ",
"# 2 R ( g 8 8 8 8 y 8 y 8 5 - - 4 y y y y 4 7 ;.4XfXrXrXdXhXfXfXfXfXhXdXrXrXdX6XL.O.v.@.y , Y ^ g y y y y y y y 8 i g Y } ~ 4 $ ",
"$ ; i g s 5 8 8 y 8 8 8 y 5 - - 5 y y y 9 5 t F [.rXwXqXrXyXtXtXrXtXyXrX0XwXrX4XL.j.M.o.5 ; i g i 8 8 8 8 8 8 8 8 g ! +.#.^ 2 # ",
"$ ; i g L P j g j j j j z i ; ; i z z j z j l ) [.wXqX&X`.`.&X0X0X&X`.`.&XqXqX4XL.k.v.o.y ; i g j z z g z z z j g E +.3.4.! 3 # ",
"$ < E } } } } } } } } } } E 2 < Y } } } } } [ a.3XwXwX`.V V `.rXrX`.V V `.wXwX4XY.v.v.@.y : U  .| } } } } | } } } +.#.3.3.^ 5 # ",
"$ < P ] ] ( ( ] ] ( ( ^ ^ P < < P / ( ( ^ ] ] ,.%XqXwX`.V V `.rXrX`.V V `.wXwX3Xa.o.X.Y , > L / ] ] ^ ( ( ] ] ] ^ ^ ! ^ ] P 2 # ",
"$ - < 2 5 5 5 2 4 2 5 5 2 < - - < 4 4 5 4 3 3 D '.wXqX&X`.`.&XqXqX&X`.`.&XqXwX].F t 4 3 - % : 4 5 2 5 2 2 2 5 5 7 5 3 5 2 > - $ ",
"$ - - - - - - ; < 2 3 5 2 < ; - - - - - - = $ C '.qXwX0XwXrXqX0X0X0XwXwXqXqXqX'.v ; ; : : : : : ; < 3 4 2 < - # @ # - - - - = $ ",
"$ - > 2 5 2 2 i R ~ T T ^ P y 2 4 4 2 2 4 3 : v '.qX0X0XqXqXqXqXqXwXwXqXqXqXqX].) f f f f f f f f L T | ] P < # $ - < 5 5 < - $ ",
"$ - 8 8 i 8 8 g ! } ~ { ..} L 8 y y y t t s n i.%XtXyXrXqX0X0X0X0X0X0X0XrXtXtX4Xi.Q L l L L L L L U ] X.+.Y 2 @ $ - 8 8 s 2 - $ ",
"$ - 5 i 9 i 8 i g g 7 g | } z 9 y y i 8 7 x K |.eXkXkXdXwX0X0X0X0X0X0XrXdXhXkXeX|.p.n u u a a a i g j j L y ; # # - 5 i 8 5 - $ ",
"$ - 5 8 y 8 8 y 8 2 - 2 ] } z 8 y 8 8 i b J }.+X8XsXjXkXyXrXtXtXtXrXtXyXhXjXsX8X$X}.J x s 8 8 y 8 y y 8 8 8 8 < - - 2 i i 2 - $ ",
"$ ; 2 8 y y 8 y 8 2 - 4 T } z 8 8 8 8 n K }.oXOX+X*XsXjXkXfXfXfXhXfXfXkXjXsX8X+X+XXX}.K n 7 8 y y y y 8 8 g R P , - 4 8 8 2 - $ ",
"$ ; i j j j j g i 2 - 4 | } z 8 i 8 7 m {.OXOXoXoX+X8XeXpX2X2X2X2X2X2XpXsX8X+XoXoXOXOX{.m 7 y y y y y y 8 j } ] 5 - 2 i i 9 - $ ",
"# , Y } } } [ T j 2 - 5 | } j 9 y y 4 m {.OXOXOXoXOX$X#XW.J.J.T.J.J.J.W.#X+X+XoXoXoXOX{.m 7 y y y y y y y z +.] 5 - 5 8 8 5 ; $ ",
"# < L ~ ~ ] ] Y 7 > $ < P Y i 2 2 4 1 n p. XoXoX.X X Xh.A.m.m.m.m.m.m.A.h. X X XoXXX Xp.n 1 3 2 2 5 2 2 2 i Y P < - 5 i i 5 - $ ",
"$ - < 3 4 3 3 , ; - # - < < ; - - % % p r.g. X.Xf.y.y.A.Z.m.m.m.m.m.m.N.A.G.G.g..X XW.r.p % - - - - - - - - 2 < - ; 8 8 9 5 ; $ ",
"$ - 2 2 - - < 2 5 5 4 5 2 2 5 2 4 < $ 0 t.W..X Xe.r.m.m.m.m.m.m.m.S.S.S.S.S.S.G. X.Xg.t.0 % > 5 5 5 4 4 4 4 4 > - - 5 y y 2 - $ ",
"# 4 ! ^ 2 : P | ] ( ( ( ( ( ( | ] P : e ~.@X+X.Xe.r.Z.S.m.S.m.S.m.S.m.S.m.m.m.G. X+X@X~.e , P | | { ^ ~ [ ~ ] L > - 4 y y 4 - # ",
"# y $.$.8 2 Y } +.+.$.#.+.+.#.$.+.R 3 v `.9X@Xh.y.r.Z.S.m.S.m.m.m.m.m.S.m.m.m.A.h.#X9X).r 3 { x.z.j.3.4.O.4.4.] 4 - 5 a g 8 > $ ",
"# y $.$.8 ; s z j E +.+.Y Y +.+.R d 4 A @X7X:XW.A.Z.Z.S.m.m.m.S.m.m.S.m.m.m.m.c.r.d.@X_.r 3 { z.z.O.O.O.O.3.4.[ 4 ; d P L d ; # ",
"# y @.$.8 - 2 8 8 i ( ( g k ! ! g 4 7 ;.(.iX!.J.D.S.S.S.S.m.m.m.S.m.m.m.m.m.m.c.r.t.>X_.r 3 ] j.r.O.O.O.O.O.r.~ 3 ; f U U f : # ",
"# y $.$.8 - 5 y 8 i g g i i g j i 8 7 ) ;X1X!.J.F.S.m.S.m.m.S.m.m.m.m.S.m.m.S.n.r.t.>X_.N 1 ^ z.4.O.O.O.O.O.4./ 4 : f U U f : $ ",
"# y $.#.8 - 5 y y 9 8 8 y 8 8 y 8 8 7 ) ;X1X!.J.D.S.m.m.m.S.m.m.m.S.m.m.m.m.S.c.c.d.>X_.r 1 / z.3.#.O.O.O.O.O.^ 4 : f U U f : $ ",
"# y $.r.8 - 5 y y y y i y y y 9 8 8 7 ) ;X<XJ.D.S.S.S.m.m.m.S.m.S.m.m.m.m.m.m.S.F.R.5X_.r 3 / z.O.O.O.O.O.O.r.^ 4 : f U U f , $ ",
"# 2 ^ ! 5 $ < 5 5 5 5 5 5 5 5 5 5 3 3 ) ;X<XJ.c.c.c.Z.m.S.S.S.S.S.S.S.m.m.Z.F.F.H.Q.5X_.r 3 / j.O.O.o.O.O.O.4.^ 4 - t f f t ; $ ",
"$ - 4 2 - $ - - - - - - - ; - - - = = v =X<Xd.r.*.r.c.S.m.m.m.m.S.S.S.S.S.D.H.Y.T.Q.5X).N 1 / j.r.3.O.O.O.O.O.^ 4 $ ; ; : ; $ $ ",
"$ $ - - ; - - - - - - - - ; < 2 , ; $ c =X1Xa.%.*.r.l.n.n.n.n.n.n.n.n.n.n.N.C.L.a.R.5X).r 1 { x.k.4.z.j.j.k.x.{ t % , 4 4 , - $ ",
"$ - < 5 6 5 5 5 5 5 5 5 2 i U R L 7 = v /.,X-.' ..4.4.5.5.5.5.5.5.5.5.5.5.4.j.3.%.s.%X).r 3  .B.B.B.B.B.b.N.B.+.5 : I [ [ P 3 # ",
"$ - 5 i 8 i y y y i y y 8 z } o.[ h ; c =X-X,.` <.6.1.1.1.1.7.6.1.1.1.1.1.1.1.<.` ,.%X).N , ! X.+.@.+.+.@.$.$.! 1 1 / j.j.] 4 # ",
"$ - 5 s y y y i y y s y y j } $.O.T , e ^.-X,.` <.6.6.6.7.6.6.6.6.6.6.6.6.6.6.<.` ,.%X).r = 3 5 y t y y 5 y y 2 - 3 T O.4.~ 4 # ",
"$ - 5 y y i y y y y y y y g ! +.} U , w i.^.,.' <.6.8.8.8.8.8.8.8.8.8.8.8.8.6.<.' ,.3X'.N = : 3 ; % - % - % % - - 4 U [ [ L , $ ",
"# > 5 y y y i y y y y y y i g z P 7 ; w i.^.,.9.8.7.9.q.q.q.q.q.w.q.q.q.q.9.7.7.9.I.3X).N , L Y i 2 2 2 2 2 5 2 2 8 a h j i ; $ ",
"$ - < 5 5 5 4 5 5 5 5 5 5 5 4 2 2 : = w u.U.K.q.8.8.q.w.=.%.%.%.%.&.&.&.w.q.8.8.q.K.=X~.e 3 Y ^ g y y y y y y y 8 8 8 8 8 2 - $ ",
"$ $ % - - - - - ; = - ; - - % - - - # y *.C.K.9.8.8.q.=.W k 9 9 k k k W =.q.8.8.q.w.a._ 6 ; i g y 9 8 8 8 8 8 8 8 y 8 8 8 2 - $ ",
"$ - , 4 4 , - % ; : : : : : ; ; - = $ 8 @.b.w.q.8.8.q.=.k < - ; 8 j g E =.q.8.8.q.q.4.~ 3 ; t z j j P g z z z j j L j j z i > $ ",
"# 3 P { / P : ; t h f f f a 4 5 2 < - 8 4.b.w.q.8.8.q.&.k < - < R  .} +.0.q.8.8.q.q.#.T 3 , Y } } } } } +.} } } } } } } } Y < $ ",
"# 4 ^ j.j./ 1 : a L L L L j a y 8 5 - 8 $.B.V.q.2.8.q.&.P < - > I { } | =.q.8.2.q.=.| h : : P ^ ] ] ^ ^ ( ( ^ ] ] ( ( ( ] P < $ ",
"# 4 { 4.j.] 3 = y a p a a p i y y 4 - y +.b.w.w.q.9.w.&.k 2 - - 3 4 4 k %.q.q.q.w.&.k ; $ - < 3 4 2 5 4 4 4 4 5 4 4 4 4 2 < - # ",
"# 1 ^ 4.r.] 4 ; 4 i y y y y y y y 2 % 5 $.b.9.,.I.U.U.,.b 1 - % $ - = w ,.U.U.K.-.W i 3 4 , < ; > ; ; ; ; ; ; ; ; : ; ; ; > $ $ ",
"# 4 ~ r.j.~ 4 ; a j i y y y y y y 5 - y #.z.E :./.7X7X=X) 3 - % < 4 3 M /.7X7X(.>.P R ] { ^ L f f f f f f f f f g f f f f 7 ; $ ",
"# 4 ^ j.j.^ 4 ; g L a 8 y y y y y 5 % y @.3.L D '.tXuX3X;.3 = - < 4 7 ;.3XdXtX].F f ] #...} U L L L U U U U U U L L L U R L 2 # ",
"# 4 ^ j.j.~ 4 : f l p y y y y y y 5 - y @.z.L D ].tXuX3X;.3 = % - : 4 ;.4XuXtX'.D u U ~ ~ U j p i g L U U U U L g p i z { ! 4 # ",
"# 4 ~ r.3.{ 4 ; p l i y y y y y y 5 % y $.$.L D '.tXuX3X;.3 = $ # % 3 ;.%XuXtX'.D u f l L g i y 8 i h L l l l l i i k P ^ I < $ ",
"# 4 ] 4.4.~ 4 - 4 i i y y y y y y 2 % y @.j.z D ].tXuX3X;.3 = $ $ - 3 ;.3XuXtX%XF 7 t i a i y y y y i a i a i i 5 g ^ ! a < - $ ",
"# 4 ~ 3.r./ 4 - 5 i y y y y y y y 2 - y $.z.L D '.tXuX3X;.3 ; $ # - 1 ;.3XuXtX%XF 7 y y y y y y y y y 8 y y y i g I ! I < # $ $ ",
"$ 4 ~ 4.3./ 4 % 5 y y y y y y y y 5 - y $.3.L D %XwXyX3X;.3 = % $ - 3 ;.%XuXtX).;.3 t t y y i y y y 8 y y y y k ( ^ g : - # $ $ ",
"# 4 ] r.j.~ 4 - 5 y y y y y y y y 4 - 2 ^ ^ u D '.tXdX%XD , = $ # % : M %XuXtX'.D 3 3 4 4 2 2 2 5 5 4 4 5 2 5 i Y P : # # $ $ $ ",
"# 4 / j.j./ 1 % 5 y y y y y y y y 4 - - 2 3 = C '.rXdX[.v $ $ $ $ # % Z %XuXtX].C = - - ; - - - - - - - - - - - 2 < % # # $ $ % ",
"# , L } o.^ 1 ; 5 i y y y y y y y 2 ; % > 3 3 ) @XyXdX%XC @ # = , 3 ; Z %XfXdX).Z = ; : : : : : < ; - - 2 8 4 2 2 4 y y 5 < - $ ",
"# = ; f } / 4 ; g j i y y y y y 8 2 - < P T T ,.6XhXkX3XZ @ @ , L U 7 ) >XkXkX4XD 3 u h f f f f f t - 2 ! #.} ~ ^ {  .@.} U < $ ",
"$ - < f [ / 4 : f L f i y y y y i 8 ; 5 ] 4...t.;XeX7X~.c = - 7 R ~ d ) ^.7XeX;X) u h L L L I U U f : y $.M.4.r.O.j.b.v.x.[ 5 # ",
"# 3 L } O.^ 4 : f U L h i 8 y a j u ; 5 ] +.Y ) ^.(.H B w 3 5 8 g j i w B H (.~.M 7 i f f f L U U f ; y @.B.z.O.r.3.3.k.j./ 4 # ",
"# 2 T 4.r./ 3 ; f U U L g a y i L a ; > j z 4 w S G * & 6 i y 8 y t 7 6 & * G G w ; : : 4 a L U U f ; y @.B.k.O.4.O.O.3.j./ 5 $ ",
"# < L [ O.[ 1 ; f U U U L h i y i 8 ; $ + + o X O O X o > i 8 s 8 8 8 6 o X O O o X X + < a L U U f : y @.B.x.O.r.O.3.3.r.] 4 @ ",
"$ ; t L ! P < ; t f f f f f 8 4 2 < - + X             o - 9 5 5 5 8 5 - o       . . . o ; t p f f t - 2 ! +.{ ^ ~ ~ ^ ] [ L < @ ",
"$ % ; < 4 , - % : : > : : : - - - - - $ + + + + + + + @ - - - - ; - - - @ + + + + + + # % ; : : : ; % - 2 8 8 5 7 3 5 4 4 < - $ ",
"$ $ $ # # # $ $ $ $ $ $ $ $ $ $ $ $ $ $ $ = - $ $ - $ $ $ $ = $ $ $ $ $ $ $ = $ % $ $ $ $ $ $ $ $ $ $ $ # $ @ @ $ @ $ # # $ $ $ "
};
