/* XPM */
static char *result[] = {
/* columns rows colors chars-per-pixel */
"64 64 48 1 ",
"  c #170A01",
". c #160A01",
"X c #1A0C02",
"o c #1A0C03",
"O c #1B0D03",
"+ c #1C0D03",
"@ c #190B02",
"# c #180A01",
"$ c #180B01",
"% c #1B0C03",
"& c #180B02",
"* c #200F05",
"= c #211006",
"- c #251307",
"; c #271408",
": c #200F06",
"> c #1D0E04",
", c #231106",
"< c #231107",
"1 c #241107",
"2 c #251208",
"3 c #2B160A",
"4 c #2D170A",
"5 c #2C170A",
"6 c #251308",
"7 c #261308",
"8 c #221006",
"9 c #2D180A",
"0 c #281409",
"q c #2A1609",
"w c #2A160A",
"e c #281509",
"r c #241207",
"t c #1F0F05",
"y c #1E0E04",
"u c #1A0B02",
"i c #221106",
"p c #291509",
"a c #271409",
"s c #261307",
"d c #1E0E05",
"f c #1C0D04",
"g c #221107",
"h c #2B170A",
"j c #2A1509",
"k c #271308",
"l c #160901",
"z c white",
/* pixels */
"    ..........         ......................................   ",
"XXXoO++++++++OoXXXX@#$%++++++++++++++++++++++++++++++++++++++%& ",
"***=-;;;;;;;;-=***:>@%,;;;;;;;;;;;;;;;;;;;;;;;;;;;;;;;;;;;;;;,% ",
"<12;3445555443;66778X+;99555555555555555555555555555555555599;+.",
"<20355555555553qqqw-O+;94555555555555555555555555555555555549;+.",
"<2q4555555555555544;++;55555555555555555555555555555555555553-O.",
"<2q4555555555555554;++;5555555555555555555555555555555555553;=o ",
"<2eqqqqqq3555555549;++;9455555555555555555555555553qqqqqqqqe2*X ",
"<r2766666;344555599;++;995555555555555555555555443;666666672r:X ",
"::*******8-;;;;;;;;,XX,;;;;;;;;;;;;;;;;;;;;;;;;;;-=tt*******:y@ ",
"XXXXXXXXXo+++++++++%$$%++++++++++++++++++++++++++%X@@@@@@@@uX@  ",
"                  .    .   .. @@@@@@@@@@@X%++++++++++++++OXuuXXX",
"                            .@>********tt=-;;;;;;;;;;;;;;-8***::",
"                             oi7766666666;344555555554453p2<<<<<",
"                             +-wqqqqqqqqq355555555555543;21<<<<<",
"                            .+;9455555555555555555555530r<<<<<<<",
"                            .+;95555555555555555555553;r<<<<<<<<",
"                             +-35555555555555555553qqe2<<<<<<<<<",
"                             o8a344555555555555443;6621<<<<<<<<<",
"                            .@>=-;;;;;;;;;;;;;;;;-8**:::******::",
"                           .. @X%+++++++++++++++++oXXXXXXXXXXXXX",
"XXXXX@##@XXXXo+++++++++++++++++++++++++++++++X#..       @XXXX@ .",
":::::y@@y::**8-;;;;;;;;;;;;;;;;;;;;;;;;;;;;;;,%..      @y::::y@.",
"<<<<1:Xo87766;344555555555555554444444453qq33s+        @d=<11=fX",
"<<<<<*@O-wqqq355555555555555555554444443;6677io        #@f=1<g=:",
"<<<<<*@+;4455555555555555555555hqjjjjqq0rg<<<*X          @y=g<<<",
"<<<<<*@+;4555555555555555555555qk222222r<<<<<:X           @+=<<<",
"<<<<<*@+;94555555555555555555553;22222266772r:X          #@f=<=:",
"<<<<1:@+;995555555555555555554453qqqqqqqqwwp2:X          @y=<=fX",
":::::y@%,;;;;;;;;;;;;;;;;;;;;;;;;;;;;;;;;;;siy@          @d==y@.",
"XXXXX@#$%+++++++++++++++++++++++++++++++++++%@#          #@oo@# ",
"         .                           ..l......            ...   ",
"                                      .ll......          .....  ",
"                                     &%+++++++++++++++++++++++oX",
"                                     %,;;;;;;;;;;;;;;;;;;;;;;-8*",
"                                    .+;9955555555555555554453e2<",
"                                     +;945555555555555555553;21<",
"                                    .+;55555555555555555555q2<<<",
"                                   ..+;55555555555555555555q2<<<",
"                                 #@@ +;945555555555555553qqe2<<<",
"                                 @dd@+;99555555555555443;662r<<<",
"                                .@dy@X,;;;;;;;;;;;;;;;;-=*****::",
"                 .             .. @@ #X++++++++++++++++OX@@uuXXX",
"XXXXXXXXXXXXX@#$%++++++++++++++++++++++++++++++%X@@@@@@@@@@uu@  ",
":::::::::::::y@%,;;;;;;;;;;;;;;;;;;;;;;;;;;;;;;-=tt**********>@ ",
"<<<<<<<<<<<<1:@+;9955555555555555555555555555443;6666666666778o ",
"<<<<<<<<<<<<<*@+;94555555555555555555555555555553qqqqqqqqqqqw-O.",
"<<<<<<<<<<<<<*@+;45555555555555555555555555555555555555555544;+.",
"<<<<<<<<<<<<<*@+;44555555555555555555555555555555555555555554;+.",
"<<<<<<<<<<<<<*@O-wqqqqqqqqq3555555555555555555555555555555549;+.",
"<<<<<<<<<<<<1:Xo87766666666;344555555555555555555555555555599;+.",
"::*********::y@@>**********8-;;;;;;;;;;;;;;;;;;;;;;;;;;;;;;;;,% ",
"XXXXXXXXXXXXX@  @uu@@@@uXXXo+++++++++++++++++++++++++++++++++%& ",
"  @XXXXXXXXXXXXXXXXXXXX@           .. @XXuuuuXX@ ..         .   ",
" @y::*********::*****::y@           .@y::::::::y@.              ",
" X:1<<<<<<<<<<<<<<<<<<1:X            @d==::::==d@               ",
" X:<<<<<<<<<<<<<<<<<<<<:X            #@oooooooo@#               ",
" X*<<<<<<<<<<<<<<<<<<<<:X                                       ",
" X*<<<<<<<<<<<<<<<<<<<<:X                                       ",
" X:<<<<<<<<<<<<<<<<<<<<:X @oo@#                      #@@#       ",
" X:1<<<<<<<<<<<<<<<<<<1:X@y==d@                      @dd@       ",
" @y::****************::y@@y==d@                      @dd@       ",
" #@XXXXXXXXXXXXXXXXXXXX@##@oo@#                      #@@#       ",
"                                                                "
};
