/* XPM */
static char *result[] = {
/* columns rows colors chars-per-pixel */
"32 32 68 1 ",
"  c #092533",
". c #01233C",
"X c #092A3A",
"o c #353F24",
"O c #364329",
"+ c #364C35",
"@ c #012640",
"# c #012A45",
"$ c #012E4B",
"% c #02314E",
"& c #013353",
"* c #073A56",
"= c #0A3C56",
"- c #023A5D",
"; c #023D62",
": c #385441",
"> c #034065",
", c #03446B",
"< c #034770",
"1 c #034A75",
"2 c #014D7A",
"3 c #01517F",
"4 c #997700",
"5 c #9B7901",
"6 c #A48400",
"7 c #AB8C00",
"8 c #A4861B",
"9 c #AB8F2C",
"0 c #CC8800",
"q c #D59B00",
"w c #DAA400",
"e c #DDAA00",
"r c #E0AF00",
"t c #E2B300",
"y c #E5BB00",
"u c #E0B115",
"i c #E3BA2F",
"p c #D8C000",
"a c #EECC02",
"s c #F7DE00",
"d c #FFEE00",
"f c #FFEF0E",
"g c #D8C64F",
"h c #FFF567",
"j c #FFF569",
"k c #015382",
"l c #015788",
"z c #045F95",
"x c #03629A",
"c c #0C6B98",
"v c #0266A2",
"b c #0469A4",
"n c #046DAB",
"m c #0372AE",
"M c #0374B1",
"N c #0878B6",
"B c #057CBC",
"V c #087BB9",
"C c #0481C3",
"Z c #0883C6",
"A c #0986C9",
"S c #D8CB9D",
"D c #EED580",
"F c #FFF680",
"G c #FFFBBF",
"H c #FFFBC4",
"J c #FFFDE4",
"K c #FFFFFF",
/* pixels */
"...@....@.....$$######.@@@@...#.",
"..&z,--@&;;;-$MNmnmMMN&2kk2;-,z#",
".$z1>>-@->;>-$MZCBBBCZ*klk,>;,v#",
".z1;;>;@;>;;44444444BZ-x<>>;>1v$",
"@<<<,<,#*->=98899889cB#-<<<<2mn$",
"#xbbbbz&4458KKKKKKKK8444bvbnbMv#",
".$$$&&o4KKKJddddddddJKKK4o&$$$$.",
".--,vx:4KKKJddddddddJKKK4:z#.&*.",
".;;,,4SKdddddq0000qdddddKS4$@;;.",
".;<,;4gjddyyyqqqqqqyyyddFg4x#;;.",
"#zbx;4yddd000weeeew000dddy4x$-;.",
"@&$44KhdddeeesddddseeedddjK44-;.",
"$n*45KjdddeeesddddseeedddjK54;;@",
"$V&45ddd00etdyeeeeydre00ddd4422@",
"$V&44dddwwerdyeeeeeteewwddd44kk@",
"$n$44dddeeeedteeeeeeeeeeddd4422@",
".#@44dddeeeedteeeeeeeeeeddd54$&.",
".-;44dddeeeedyeeeeeteeeeddd54bb#",
".;>54dddeeetdyeewwydreeeddd54vv#",
".--45dddKKeeesdddddeeeKKddd54,>.",
".%$45dddKKeeesddddseeeKKddd44<,.",
"@bb%14ydddeeeeeeeeeeeedddy4bbbz#",
"#Mm%;5pdddDDDueeeeuDaadddp4&&&&.",
"#mm%24pdddKKKieeeeiKfddddp4k222@",
"#Mm%3>O4dddddHKKKKHddddd4+lk,1x#",
"#Mm%->O4dddddGKKKKGddddd4O>,1x%.",
"#MM%->>>4445dddddddd6454;-->z&..",
"#bm%->>>& %X76677667 @.X#@%%&#@.",
".-b%1,>>;$vz44444544-2333&BMMZn#",
"@bm&kk,>1&n1;-;;,;,;>,,l3&AZCCM#",
"@lv%1k2>;#z;-;;;;;;-;->31&BMmMb#",
"..#.@@@...$............@..####@."
};