/* XPM */
static char *result[] = {
/* columns rows colors chars-per-pixel */
"32 32 73 1 ",
"  c #092533",
". c #01233C",
"X c #092A3A",
"o c #353F24",
"O c #364329",
"+ c #364C35",
"@ c #012640",
"# c #012A45",
"$ c #012E4B",
"% c #02314E",
"& c #013353",
"* c #073A56",
"= c #0A3C56",
"- c #023A5D",
"; c #023D62",
": c #385441",
"> c #034065",
", c #03446B",
"< c #034770",
"1 c #034A75",
"2 c #014D7A",
"3 c #01517F",
"4 c #997700",
"5 c #9B7900",
"6 c #A17F00",
"7 c #A48300",
"8 c #A88600",
"9 c #AA8B00",
"0 c #CC8800",
"q c #D09100",
"w c #D59A00",
"e c #CDAB00",
"r c #DAA300",
"t c #DDAA00",
"y c #D2B400",
"u c #D5BA00",
"i c #E1B300",
"p c #E6BC00",
"a c #EAC400",
"s c #EECC00",
"d c #EFCE0E",
"f c #F1D300",
"g c #F6DD00",
"h c #F9E200",
"j c #FFEE00",
"k c #E6BF40",
"l c #D8C64F",
"z c #EACE68",
"x c #EAD17C",
"c c #F3E27B",
"v c #015382",
"b c #015788",
"n c #045F95",
"m c #03629A",
"M c #0C6B98",
"N c #0266A2",
"B c #0469A4",
"V c #046DAB",
"C c #0372AE",
"Z c #0374B1",
"A c #0878B6",
"S c #057CBC",
"D c #087BB9",
"F c #0481C3",
"G c #0883C6",
"H c #0986C9",
"J c #D8CB9D",
"K c #F8E980",
"L c #FFF680",
"P c #F3EACB",
"I c #F6F4EA",
"U c #FEFCF1",
"Y c #FAFAFA",
/* pixels */
"...@..........$##$###$..@@@...@.",
"..&n,--@-;;--$ZAZVZVZA&1vv1>;,m#",
".$n1>>-@;;;;-$ZGSSSSFG*vbv,>><N#",
".n1;;>;@;>;;44444444SG-m1>;;;1N#",
"@<<<,<,#=;,=97799779MS%-<<,,1ZV$",
"#mBBBBn&5558jjjjjjjj7444BBBNBZN#",
".$$$&&o4YYYYYktttsssssjj4o-$$$$.",
".--,Nm:4YYYYYktttsssssjj4:m@.&-.",
".;;,,4JYYYYUstt00000asssju4$@-;.",
".;<,-5lLLLKKprwwqwwwccssgu4m$;;.",
"#nBm;5ujjjfft00tttttIYasse4m$-;.",
"@&$45jjjjjfs0rtttjgtttYYsfg54;-.",
"$V*45jjjjjfs0rtttjgtttYIsfg54;;@",
"$D&45jjjfgff0rtjjtpjitYYsfg5422@",
"$D&44jjjfftt0rtjjttuttYYsfg44vv@",
"$V$44jjjfftt0rtjjttttrYYsfg4411@",
".$@44hggfftt0rtjjtttttYYsfg44%&.",
".-;45hhhfftt0rtjjttittYYsfh44BB#",
".->45jjjfffs0rtjjtpjttYIsfg44NN#",
".--45jjjjjfstq0ttjgtrrYYsfg44,>.",
".%#55jjjjjfft00ttjgtttYYsfg44<,.",
"@BB%14uhhhfftPYttttrIYssse4BBBm#",
"#ZC%,4uhhhffazxxxxxxccssfy4&&&$.",
"#CZ%14uhhhggfttYYYYYdsssgu4v232@",
"#ZC%1,O4jjsssaatttisssgg4+bv,1m#",
"#ZC%>>O4jjsssaatttisssgg4O,,1n&.",
"#ZZ%-;>;4447jjjjjsss8455-;-;n$..",
"#BC%;>>>%.&X88788678 @..#@$$&$@.",
".-B&1,>>;$Nn44444544-1vv1%SZZGV#",
"@BC&vv,,1&B1;-;;,>;;;,,bv*HFFFZ$",
"@bB%1v1;;#n;-;;;-;;;;;;21&SZCCN@",
"..#.@@@...$...@..@....@@@.#$###."
};