/* XPM */
static char *result[] = {
/* columns rows colors chars-per-pixel */
"32 32 69 1 ",
"  c #062537",
". c #01233C",
"X c #062B3F",
"o c #5F5512",
"O c #605715",
"+ c #655C14",
"@ c #012641",
"# c #012A45",
"$ c #012E4B",
"% c #01304E",
"& c #013353",
"* c #013759",
"= c #023A5D",
"- c #023D62",
"; c #034065",
": c #03436B",
"> c #034770",
", c #024A75",
"< c #014D7A",
"1 c #01517F",
"2 c #997700",
"3 c #9D7B00",
"4 c #A07E00",
"5 c #A48300",
"6 c #AA8A00",
"7 c #CC8800",
"8 c #D39500",
"9 c #D59B00",
"0 c #DDAA00",
"q c #DCB500",
"w c #E0AF00",
"e c #E1B200",
"r c #E5BD00",
"t c #DEB12C",
"y c #E4C300",
"u c #E9C400",
"i c #EECC00",
"p c #F0CE00",
"a c #F2D400",
"s c #FFEE00",
"d c #E8C42E",
"f c #E7C65A",
"g c #EED25D",
"h c #EAD17C",
"j c #EFDC7C",
"k c #F3E871",
"l c #015382",
"z c #015788",
"x c #045F95",
"c c #04629A",
"v c #0367A2",
"b c #0469A4",
"n c #046DAB",
"m c #086CA9",
"M c #0970A3",
"N c #0372AE",
"B c #0A74AC",
"V c #0374B1",
"C c #0878B6",
"Z c #057CBC",
"A c #087BBA",
"S c #0481C3",
"D c #0883C6",
"F c #0986C9",
"G c #EEDC9E",
"H c #F6E580",
"J c #FFF680",
"K c #F1ECDB",
"L c #FBFAFA",
/* pixels */
"...@.... .....######$#.@@@@...#.",
"  &x:-*@=---*$VCVNNNVC&,ll<-=:x#",
".$x,---@--;--$VDSZSSSF*lzz:;-:v#",
"@x,----@=;-;22222222SD*c:;--;,v$",
"@,>>>>:#::-=65566446MB&>>:>:<Vn#",
"@xbbbbx&cb32sssssrup22&xmvmmbVv#",
".$&$**&@O2LLLLLw00wrii2O&&*$#%#.",
".*--xcv:+3LLLLL000wrii2+lbc#.**.",
"@--::*v2KLLLLgr7779ryuiy2::$@=-.",
".->:=$b2kJJJHde899tjeeuq2-:c$--.",
"#xbx-$c2ssssie0000fL00yq2=:x$=-.",
"@&$*$23sssssr9700097LL00i32&@-=.",
"$m*cm24ssssse9700097LL00i32v$--@",
"$A&;,23sssss08700sa0LL00i32N%<<@",
"$A&=;24sssyi08700sa0LL0ei32V&ll@",
"$m%*-22sssyu08700sa0LL00i22N$<,@",
".$@@@22aapuu08700000LL00i22V$$&.",
".*---23saauu08700q00LL90a32A*bb#",
".----23sssru08700sa0LL0wi32%$vv#",
".*-=-24sssss08700sa0LLryi32=-:;.",
".$$.#23sssss08700si0LLuui32::>:.",
"@bb%,<,2riyurw0LL0fL00yq2vbbbmx#",
"#VN%-::2ypiurw0hhhhh00yq2&&&&&%.",
"#NN&<;-2yaiiew000LG000ir2<1l<1<@",
"#VN%<;;;+2ssurr00000ru2+:lzl:<x#",
"#NN%-;;;O2ssrre00000ry2o-:::,x%.",
"#NV%=--;=%22sssss0wr22==-==-x&. ",
"#nN%-;;--@$#65566445 X###@$&&$@.",
".-b%<:;;-$vx22222222-<11<%AVVDn$",
"#bN&1l:;,&b,-=--:-:-;;:zl*FSZSV#",
".zc&1l1--#x-=---=------1,&AVNNv#",
"..#......@#............@..#$###."
};