/* XPM */
static char *result[] = {
/* columns rows colors chars-per-pixel */
"32 32 67 1 ",
"  c #01233C",
". c #052A3F",
"X c #2C3926",
"o c #263629",
"O c #2D3F2C",
"+ c #273E32",
"@ c #012641",
"# c #012A45",
"$ c #012E4B",
"% c #02314E",
"& c #023352",
"* c #073854",
"= c #013759",
"- c #023A5D",
"; c #033D62",
": c #034066",
"> c #03446B",
", c #034770",
"< c #024A75",
"1 c #014D7A",
"2 c #01517F",
"3 c #967601",
"4 c #997700",
"5 c #9F7C00",
"6 c #A27E00",
"7 c #A48400",
"8 c #A78800",
"9 c #AA8B00",
"0 c #BB9000",
"q c #CC8800",
"w c #D29300",
"e c #D79D00",
"r c #DDAA00",
"t c #CCB200",
"y c #E4B800",
"u c #EAC300",
"i c #EECC00",
"p c #F2D400",
"a c #F5DB00",
"s c #F9E300",
"d c #FFEE00",
"f c #E6C453",
"g c #EBD17C",
"h c #015382",
"j c #015788",
"k c #045F95",
"l c #04629A",
"z c #0266A2",
"x c #0469A5",
"c c #046DAB",
"v c #086CAA",
"b c #0C72A5",
"n c #0372AE",
"m c #0374B1",
"M c #0970B0",
"N c #0878B6",
"B c #047DBC",
"V c #087BBA",
"C c #0481C2",
"Z c #0883C6",
"A c #0885C9",
"S c #FFF680",
"D c #EFDEA5",
"F c #F7F6F3",
"G c #F8F7F5",
"H c #F8F8F7",
"J c #FCFCFC",
/* pixels */
"   #          $##$##$# @@@@   # ",
"  &k:--@=;;;=$MNnnnnmN&<hh1;->k#",
" %k<:;;@-:;:;$mZBCBBCA=jjj>:;>z#",
" k,;;;-#-:;:44443443CA*l>:;;;<z$",
"@<,,,,>#>>-:77999876nb%>,>,>1Mc$",
"@kxxxxk%lx44ddddddur43=lxxxxxmx@",
" $$%&=&@@4JJJJJJJrrrrr3@&*=$$$$ ",
" =->llz>*5JJJJJJJrrrrr4>hxl@ == ",
"@;;;;-v,-4JJJJJrrrwqrr4;;<;$@;; ",
"@;,,;$x+OtSSSSSrrwewrr0++;,z$;; ",
"#kxl;#l47ddddddrrqerrrr64;;k$;; ",
" &%&%$&48ddddsurrqerHGr64$%& ;= ",
"$c=lvMv49ddddsurrqerHFr63mmz$;; ",
"$V&:<vh48ddddayrrqerHHr63BBm$hh@",
"$V&-:>:48ddddprrrqerHHr63BBm%hh ",
"$v%=--;45ddddarrrqrrHHr63BBm$11 ",
" $@@@##47ddddarrrqerHHr63CCM$$% ",
" =;;--:47ssssprrrqerHHr64AAN=xx#",
" ;;;;:>46rrrrrrrrqerHFr64$$$$zz#",
" =-;-;;48ddddprrrqerHFr64;;;;,;@",
" $$ ###48ddddprrrqerJFr63,,,,,;@",
"#zx%<2147ddddddrrrrrHHr63xxzxzk#",
"#mn%:>:+Otiiiiirrrfggg0Xo&%&&%& ",
"#nm%<:::=4rrrrrrrrDJrr4<1hhh1h1@",
"#mn%1:::*4ddrrrrrrrrrr4-;jjh,1k#",
"#mn%::;:*4sdrrrrrrrrrr3*;;>;<k% ",
"#mm%-;:;-%34ddddddur43--;;;;k%  ",
"#xn%;:;:;@$#77889856 .###@$%=$@ ",
" -z&<>::;$xk43334444;11h<&VmmAc#",
"#zn&2j>:<%x<;;-;>:;:;>>jh=ACBCm$",
"#hl%<h1;;#l;--;;;;;;;-;1<&Vmnmz@",
"  # #@.   #@        @  @@ #$### "
};