/* XPM */
static char *result[] = {
/* columns rows colors chars-per-pixel */
"32 32 50 1 ",
"  c #01233C",
". c #012640",
"X c #012A45",
"o c #012E4B",
"O c #01304E",
"+ c #013352",
"@ c #023658",
"# c #023A5E",
"$ c #033D62",
"% c #034065",
"& c #03436B",
"* c #034770",
"= c #034A75",
"- c #014D7A",
"; c #01517F",
": c #926F00",
"> c #947300",
", c #997700",
"< c #B09200",
"1 c #DDAA00",
"2 c #E2AE00",
"3 c #EECC00",
"4 c #F4D200",
"5 c #F7DF00",
"6 c #FEE600",
"7 c #FFEE00",
"8 c #FFF600",
"9 c #015382",
"0 c #015788",
"q c #045B8F",
"w c #045F96",
"e c #04629A",
"r c #0367A2",
"t c #0469A5",
"y c #086DA6",
"u c #036DAB",
"i c #086CAA",
"p c #0472AE",
"a c #0474B1",
"s c #0874B2",
"d c #0879B6",
"f c #047DBD",
"g c #097EBD",
"h c #047FC0",
"j c #0481C3",
"k c #0883C6",
"l c #0885C8",
"z c #FFF680",
"x c #FFFF88",
"c c #FFFFFE",
/* pixels */
"   .     .    ooXXoXoo ....  .X ",
"  +e&## @$$$@osdupppadO=99-$$%wX",
" +w=%%$.$$$$$oahhfffjl@900%%$*rX",
" q*$$%#.$$$,>,,,,,,,,l@e&%%$$=tX",
".=**&*$X&**,><<<<<<>,l+****&-auX",
"Xwttyyw+wyt,:877778:,a+wttttyutX",
" oOO+@+Xooo,:cccccc:,+X+O@@oooo ",
" @$$ert$##$,:cccccc:,--;9twX @@ ",
" $$$$@i&$$$,:cccccc:,&%&$=&o.$@.",
".$**$oi*$$&,:xzzzzx:,%$$$$*eo$$ ",
"Xwtw$oe$#$$,:877778:,#$#$$$wo$$ ",
" +o@Oo@Oo. ,:877778:,o.oooO+.@$ ",
"ou@eyiiieo ,:877778:,w@idupto$$ ",
"og+&-i9y=$$,:877778:>t@shhhaO-9.",
"od+#$&$&$$$,:877778:,t@ahhhu+99.",
"oiO@$#$$#$$,:877778:,t@affhpO==.",
" o.....oX.o,:877778:,t@dkhjao+O ",
" @$#$$%r9+a,:655656:,u+allld@rrX",
" $%%$%&pr@g,>211111>,uo++++oottX",
" @#$##$&$+g,:877778:,u+w%###$&% ",
" oo XXX. og,:877778:,uO***&*&*% ",
"XttO=--$#+g,:877778:,eOwttytrueX",
"oapO%&&%#+g,>433334>,+o+++O+++O ",
"XppO=&$$#+g,>211111>,ru9-999-;-.",
"oppO-%%%$Og,>211111>,00&$009*-wX",
".ppO$%%%#+h,>211112>,%%%$$$&-wO ",
"oppO#%$%#os,:877878>,$##$$@$wO  ",
"XtpO$$%$$.+,,<<<<<<,,XXXo.OO+o. ",
" $t+-&%%$or,,,>>,,,,,-;;-OfaaluX",
" tp+;;&%=Ou=$#$$&$%$%%&09@ljhhao",
" 0e+-9;$#oe$#$$$$$$$$#%;=+daparX",
"  X  .    X        .   .  oXXX. "
};