/* XPM */
static char *result[] = {
/* columns rows colors chars-per-pixel */
"32 32 60 1 ",
"  c #01233C",
". c #052A3F",
"X c #263629",
"o c #2D3F2C",
"O c #273E32",
"+ c #012641",
"@ c #012A45",
"# c #012E4B",
"$ c #02314E",
"% c #023352",
"& c #073854",
"* c #013759",
"= c #023A5D",
"- c #033D62",
"; c #034066",
": c #03446B",
"> c #034770",
", c #024A75",
"< c #014D7A",
"1 c #01517F",
"2 c #967601",
"3 c #997700",
"4 c #9F7C00",
"5 c #A27E00",
"6 c #A48300",
"7 c #A98A00",
"8 c #BB9000",
"9 c #CC8800",
"0 c #DDAA00",
"q c #CCB200",
"w c #E5BB00",
"e c #E9C200",
"r c #F2D500",
"t c #FFEE00",
"y c #FEF029",
"u c #E6C156",
"i c #FDF153",
"p c #FCF37C",
"a c #015382",
"s c #015788",
"d c #045F95",
"f c #04629A",
"g c #0266A2",
"h c #0469A5",
"j c #046DAB",
"k c #086CAA",
"l c #0C72A5",
"z c #0372AE",
"x c #0374B1",
"c c #0970B0",
"v c #0878B6",
"b c #047DBC",
"n c #087BBA",
"m c #0481C2",
"M c #0883C6",
"N c #0885C9",
"B c #E5C480",
"V c #FFF780",
"C c #EED7A9",
"Z c #FBFBFA",
/* pixels */
"   @          #@@#@@@# @ ++   @ ",
"  %d;==+*---*#cvzzzzxn$,aa<;=:d@",
" $d,;--+--;;-#xMmbbbmM*ssa:;-:g@",
" d>---=@----33333322mM*f>;---,g#",
"+,>>>>:@::=-66666544zl%:>:>:<xj#",
"+dhhhhd$fh34tr00000032%dkhhhhch+",
" ##$%*%+.3ZZZZZ00000002@$**#### ",
" *=:ffg:*4ZZZZZ00000003:ahf+ ** ",
"+----=k>=3ZZZC9tt000003-->:#+-* ",
"+->>-#hOoqVVBuwtt000008OO->d#--+",
"@dhf-@f36ttt90ttt00000043--f#-- ",
" %$%$#%37ttt90tZZtw000053$$%+-* ",
"#j*fkck37ttt90tZZtw000052xzh#--+",
"#n%;,ka37ttt90tZZte000052bbx#<<+",
"#n%=;:;36ttt90tZZte000052bbx$aa+",
"#k$*==-36ttt90tZZte000043bbz$<<+",
" #+++@@33ttt90tZZtw000033mmx##$ ",
" *--==;36ttt90tZZtw000053MNn*hh@",
" ----;:37ttt90tZZte000053%$##hh+",
" *=-=--37ttt90tZZ00000053===-:-+",
" ## @@@37ttt90tZZ00000052>>>>>-+",
"@gh$,<<35ttttiZtt00000042hhhhhd@",
"@xz$-:;Ooqtttyptt000008XX$$%%%$ ",
"@zx$<:;-*2ttttttt000002,<aaa<<a+",
"@xz$<;;;&3ttttt00000003=-ssa:<d@",
"@zz$-;-;&3ttttt00000003&--::,d% ",
"#xx$=;;-=$230000000032==--=-d#  ",
"@hz$=-;;-+#@35556545  @@#+##%#+ ",
" =g%<:;;-#gd32223333-<11<%nxxMj@",
"@gz%1a:;,$h<--=-:-:--::s1*Nmmmx#",
".sg$<a1-=#d-=------=---<<$vxzzg@",
"  @   . + @            @  #@@@@ "
};