/* XPM */
static char *result[] = {
/* columns rows colors chars-per-pixel */
"32 32 63 1 ",
"  c #062537",
". c #01233C",
"X c #062B3F",
"o c #5F5512",
"O c #605715",
"+ c #655C14",
"@ c #012641",
"# c #012A45",
"$ c #012E4B",
"% c #01304E",
"& c #013353",
"* c #013759",
"= c #023A5D",
"- c #023D62",
"; c #034065",
": c #03436B",
"> c #034770",
", c #024A75",
"< c #014D7A",
"1 c #01517F",
"2 c #997700",
"3 c #9D7A00",
"4 c #A17E00",
"5 c #A48200",
"6 c #A98900",
"7 c #A08011",
"8 c #CC8800",
"9 c #D69C00",
"0 c #D4A300",
"q c #DBA500",
"w c #DDAA00",
"e c #E1B100",
"r c #E6BB00",
"t c #F2D400",
"y c #F1DD00",
"u c #FFEE00",
"i c #FFF233",
"p c #EBD17C",
"a c #F3E871",
"s c #FCF37C",
"d c #015382",
"f c #015788",
"g c #045F95",
"h c #04629A",
"j c #0367A2",
"k c #0469A4",
"l c #046DAB",
"z c #086CA9",
"x c #0970A3",
"c c #0372AE",
"v c #0A74AC",
"b c #0374B1",
"n c #0878B6",
"m c #057CBC",
"M c #087BBA",
"N c #0481C3",
"B c #0883C6",
"V c #0986C9",
"C c #FFF680",
"Z c #FBF496",
"A c #FBF49B",
"S c #F1ECDB",
"D c #FBFBFB",
/* pixels */
"...@.... .....#######$.@@@@...#.",
"  &g:-*@=---*$bnbbccbM%,dd<-=:g#",
".$g,---@--;--$bBNmmNNB*ddd:;-:j#",
"@g,----@=;-;22222222NV*h,;;-;,j$",
"@,>>>>:#::-=65654434xv&>>:>:<cc#",
"@gkkkkg&hk32uuuwwqww22&gzjzzkcj#",
".$&$**&@O2DDDDDuuutwww2O%**$#$$.",
".*--ghj:+3DDDDDuuutwww2+dkg#@**.",
"@--:-*k2SDuuuw8uuuuuwww02--%@--.",
".->:-$k2aCuurq9ssuuuwww02-,g$--.",
"#gkg-$h3yuuu89wDDuuuwww02--h$--.",
"@&$*&24Diu88wwwwqDAuwwwww32&.-*.",
"$z*hz27Diu88wwwwwDZuwwwww32k$--.",
"$M&;,23uuu88wtuwwDZuuuwww22l%dd.",
"$M&=;24uuu88wtuw0DAuuuwww22b&dd.",
"$z%*-22uuu88wtuwqDAuuuwww22l%,<@",
".%@@@22uuu88wwwwwDAuuuwww22b$$&.",
".*-=-23uuu88wewwwDAuuuwww22M*kk#",
".=;;;23uuu88wtuw0DZuuuwww32$$jj#",
".*=-=25uuu88wtuwqDZuwwwww32=-:;.",
".%#X#23uuu88wtuwwDAu0wwww32:>>:.",
"#kj%,<,2yuuuqqwDDuuuwww02jkkkkh#",
"#bc%;::2yuuupppssuuuwww02&&&&&$.",
"#cb%<;-2yuuuDDDuuuuuwww02<1d<1<@",
"#bc%<;;;+2uuuuuuuutwww2+:ddd:<h#",
"#cc$-;;;O2uuuuuuuutwww2o-:::,g%.",
"#bb%=--;=&22uuuwwwww22==--=-g&. ",
"#lc%-;;-=@$#64555335 X##@@$&&$@.",
".-k&<:;;-$jg22222222-<<d,%MbbVl#",
"@jc&1d:;,&k<-*--:;:-;::fd*VNmNb$",
"Xdh&,d1-*$g--------=-=-1<&Mbcbj#",
".@#.@.X...$............@..$###@."
};