/* XPM */
static char *result[] = {
/* columns rows colors chars-per-pixel */
"32 32 217 2 ",
"   c #012038",
".  c #012138",
"X  c #012239",
"o  c #01223A",
"O  c #01233A",
"+  c #01223B",
"@  c #01233B",
"#  c #01233C",
"$  c #01243C",
"%  c #01243D",
"&  c #01253D",
"*  c #01253E",
"=  c #012640",
"-  c #012740",
";  c #012641",
":  c #012741",
">  c #012842",
",  c #012843",
"<  c #012844",
"1  c #012944",
"2  c #012A44",
"3  c #012A45",
"4  c #012A46",
"5  c #012B46",
"6  c #012A47",
"7  c #012B47",
"8  c #012C47",
"9  c #022B48",
"0  c #012C48",
"q  c #012C49",
"w  c #022C48",
"e  c #022D49",
"r  c #012C4A",
"t  c #012D4A",
"y  c #012D4B",
"u  c #012E4B",
"i  c #022E4B",
"p  c #012E4C",
"a  c #012F4C",
"s  c #012E4D",
"d  c #012F4D",
"f  c #012F4E",
"g  c #01304D",
"h  c #02304D",
"j  c #01304E",
"k  c #01304F",
"l  c #01314F",
"z  c #02304E",
"x  c #013050",
"c  c #013150",
"v  c #013151",
"b  c #013250",
"n  c #013251",
"m  c #023251",
"M  c #013152",
"N  c #013252",
"B  c #023352",
"V  c #013354",
"C  c #013454",
"Z  c #013555",
"A  c #023454",
"S  c #023555",
"D  c #013556",
"F  c #013557",
"G  c #023556",
"H  c #023656",
"J  c #013658",
"K  c #01375A",
"L  c #023859",
"P  c #02385A",
"I  c #02385B",
"U  c #023A5D",
"Y  c #023A5E",
"T  c #023B5E",
"R  c #023B5F",
"E  c #023B60",
"W  c #013C60",
"Q  c #023C60",
"!  c #023C61",
"~  c #023D61",
"^  c #023D62",
"/  c #023D63",
"(  c #023E62",
")  c #023E63",
"_  c #033E63",
"`  c #033F63",
"'  c #033E64",
"]  c #033F64",
"[  c #033F65",
"{  c #034064",
"}  c #034065",
"|  c #024066",
" . c #034066",
".. c #034067",
"X. c #034167",
"o. c #024168",
"O. c #034168",
"+. c #024268",
"@. c #034268",
"#. c #024269",
"$. c #034269",
"%. c #02436B",
"&. c #03436B",
"*. c #02446B",
"=. c #02446C",
"-. c #03446C",
";. c #03446D",
":. c #03456E",
">. c #03466E",
",. c #03466F",
"<. c #034670",
"1. c #034770",
"2. c #034871",
"3. c #014974",
"4. c #034974",
"5. c #014A75",
"6. c #034A75",
"7. c #034B76",
"8. c #034B77",
"9. c #044B77",
"0. c #014C77",
"q. c #014C78",
"w. c #014C79",
"e. c #014D79",
"r. c #034C79",
"t. c #014D7A",
"y. c #014F7C",
"u. c #014F7D",
"i. c #01517F",
"p. c #997700",
"a. c #CC8800",
"s. c #DDAA00",
"d. c #FFEE00",
"f. c #015180",
"g. c #015280",
"h. c #015281",
"j. c #015381",
"k. c #015382",
"l. c #015383",
"z. c #015484",
"x. c #015686",
"c. c #015787",
"v. c #015788",
"b. c #025E96",
"n. c #055E94",
"m. c #055F94",
"M. c #055F95",
"N. c #045F96",
"B. c #02619A",
"V. c #02629B",
"C. c #03629B",
"Z. c #046098",
"A. c #046198",
"S. c #046199",
"D. c #066199",
"F. c #046298",
"G. c #046299",
"H. c #04629A",
"J. c #04639B",
"K. c #01629D",
"L. c #0266A0",
"P. c #0166A2",
"I. c #0167A3",
"U. c #0266A3",
"Y. c #0466A1",
"T. c #0466A2",
"R. c #0467A2",
"E. c #0267A4",
"W. c #0369A1",
"Q. c #0268A2",
"!. c #036AA2",
"~. c #0369A4",
"^. c #0269A5",
"/. c #036BA4",
"(. c #0568A4",
"). c #0569A4",
"_. c #0569A5",
"`. c #0569A6",
"'. c #056AA6",
"]. c #056BA8",
"[. c #046EAB",
"{. c #036EAE",
"}. c #0670AA",
"|. c #0771AB",
" X c #0272AE",
".X c #0372AE",
"XX c #0373AE",
"oX c #0273AF",
"OX c #0373AF",
"+X c #0670AF",
"@X c #0373B0",
"#X c #0373B2",
"$X c #0671B0",
"%X c #0274B0",
"&X c #0374B0",
"*X c #0374B1",
"=X c #0375B2",
"-X c #0376B2",
";X c #0474B1",
":X c #0674B2",
">X c #0878B6",
",X c #077AB8",
"<X c #037EBE",
"1X c #037FBF",
"2X c #047EBF",
"3X c #087BBA",
"4X c #0480C1",
"5X c #0481C2",
"6X c #0481C3",
"7X c #0482C4",
"8X c #0583C6",
"9X c #0882C4",
"0X c #0884C6",
"qX c #0884C7",
"wX c #0885C8",
"eX c #0986CA",
"rX c white",
/* pixels */
". . X 2 * % $ X $ % % % $ O 8 9 5 4 4 4 7 w @ = ; ; ; % % * < o ",
". . N M.O.R I ; I E E E P p :X>XXX X X X=X,Xm 0.h.g.t.( T o.b.3 ",
"X N N.6.} ] E > E [ ] [ R d #X9X2X<X<X<X5XwXG z.v.l.=.{ ` >.U.7 ",
"2 n.4.] _ ] R > R ] ' ] p.p.p.p.p.p.p.p.4XqXP G.1.| ] _ ] 7.E.6 ",
"= 2.1.,.,.<.$.2 $.,.,.<.p.p.p.p.p.p.p.p.8XwXB <.1.,.,.>.9.$X{.4 ",
"1 A.`._.(._.Z.v S.p.p.p.rXrXrXd.d.s.s.s.p.p.p.N._.(.)._.'.+XT.3 ",
"o y s f D F V p.p.rXrXrXd.d.d.d.d.d.s.s.s.s.s.p.p.J D r 0 p t o ",
"$ P T  .J.K.R.p.p.rXrXrXd.d.d.d.d.d.s.s.s.s.s.p.p.~.J., @ P P $ ",
"% R ] } @.K p.rXrXd.d.d.a.a.a.a.a.d.d.d.s.s.s.s.s.p.&.r * Q E % ",
"* o.,.:.R p p.rXrXd.d.d.a.a.a.a.a.d.d.d.s.s.s.s.s.p.;.B.u R E % ",
"< b.E.V.! q p.d.d.d.a.a.s.s.s.s.s.rXd.d.d.d.s.s.s.p.@.H.p R E % ",
"# A p C p.p.rXd.d.a.s.s.s.s.d.s.s.a.rXrXd.d.s.s.s.s.p.p.= R R % ",
"e }.G D.p.p.rXd.d.a.s.s.s.s.d.s.s.a.rXrXd.d.s.s.s.s.p.p.u / ) % ",
"i 3XB X.p.p.d.d.d.a.s.s.d.d.s.d.d.s.rXrXd.d.d.s.s.s.p.p.c y.u.= ",
"i 3Xm Y p.p.d.d.d.a.s.s.d.d.s.s.s.s.rXrXd.d.d.s.s.s.p.p.n h.j.; ",
"e |.z L p.p.d.d.d.a.s.s.d.d.s.s.s.s.rXrXd.d.d.s.s.s.p.p.l q.q.= ",
"O i = : p.p.d.d.d.a.s.s.d.d.s.s.s.s.rXrXd.d.d.s.s.s.p.p.y f k @ ",
"$ P E R p.p.d.d.d.a.s.s.d.d.s.s.s.s.rXrXd.d.d.s.s.s.p.p.H ^.^.4 ",
"% E } [ p.p.d.d.d.a.s.s.d.d.s.d.d.s.rXrXd.d.d.s.s.s.p.p.p I.P.3 ",
"$ P R E p.p.d.d.d.d.s.s.s.s.d.s.s.s.rXrXd.d.s.s.s.s.p.p.Q %.| & ",
"o t u = p.p.d.d.d.d.s.s.s.s.d.s.s.s.rXrXd.d.s.s.s.s.p.p.,.,.@.* ",
"3 !.!.d 3.u.p.d.d.d.rXrXs.s.s.s.s.rXd.d.d.d.s.s.s.p._._._.`.S.1 ",
"7 &X&Xg | #.p.d.d.d.rXrXs.s.s.s.s.rXd.d.d.d.s.s.s.p.M M M N j @ ",
"4 oX@Xc q.o.p.d.d.d.d.d.rXrXrXrXrXd.d.d.s.s.s.s.s.p.g.i.y.u.y.- ",
"4 oX@Xb q.+.] p.p.d.d.d.d.d.d.d.d.d.s.s.s.s.s.p.p.l.x.k.=.r.F.3 ",
"4 oX%Xa ^ } ] p.p.d.d.d.d.d.d.d.d.d.s.s.s.s.s.p.p.+.+.+.6.N.n X ",
"5 &X%Xp Y ] ] ] T p.p.p.d.d.d.d.d.s.s.s.p.p.p.T T R U ..m.x   . ",
"3 /..Xa ^ { ] ] R : A a p.p.p.p.p.p.p.p., 4 4 4 3 = h j Z p 6 o ",
"+ W /.n w.=.] [ ^ u Y.C.p.p.p.p.p.p.p.p.( e.u.g.q.m ,X-X;X0X[.4 ",
"1 Q..Xn f.z.*.+.5.c ].8.~ E E ~ -. .[ [ } +.=.c.h.S eX7X1X6X*X7 ",
"= z.L.j q.h.t.( U y S.@.R E E E R E E E E R ( u.q.m ,X=X XOXW.3 ",
"X = 1 @ = ; ; % # o 1 * % % % % % % % % % % % ; = @ w 7 4 7 3 X "
};