/* XPM */
static char *result[] = {
/* columns rows colors chars-per-pixel */
"32 32 41 1 ",
"  c black",
". c #020101",
"X c #060201",
"o c #070404",
"O c #090302",
"+ c #0A0402",
"@ c #0B0503",
"# c #0A0504",
"$ c #090605",
"% c #0B0705",
"& c #0C0604",
"* c #0E0605",
"= c #0D0707",
"- c #0D0907",
"; c #0E0906",
": c #110906",
"> c #110A06",
", c #120A06",
"< c #140C0A",
"1 c #150D0B",
"2 c #170E0C",
"3 c #16100D",
"4 c #18100D",
"5 c #19110D",
"6 c #1C120E",
"7 c #171211",
"8 c #1E1E1E",
"9 c #211513",
"0 c #241C17",
"q c #281A17",
"w c #2C221B",
"e c gray17",
"r c #312822",
"t c #3E312A",
"y c #3D322D",
"u c gray22",
"i c #4E3F38",
"p c gray27",
"a c #564A43",
"s c #6F5F56",
"d c gray48",
/* pixels */
"77777$777$$$$$$$$$777$$$77777777",
"siitwwO5O5wwwwwwwO55OOttOOOwtiis",
"itttwwOO5wttsirr0wOOwtsitOOOwtis",
"tttwww5Owwsitrrr003rtwwwwtOOwttt",
"ttwwwwwOwtttr000033r0wwwww5O5wtt",
"ttwwww5Otwtw0000033000wwww5O5www",
"wwwww5wOwwtw0000033303wwww5O5ww5",
"wwww5w5Owww000003303305w5wOO5ww5",
"55w5w5OOww0000033330335555OO55w5",
"5OOOOOOO5w3033300rrr##555OOOO5O5",
"OtttOXOOO5333yayyrr00#OOOOOOOOO5",
"5tww<69&XX##3rrrrr000355sittwOtO",
"wwww<66666o=3000000033sittwwwOt5",
"wwww<6qq664#3uu---uu33itttww55ww",
"w5ww<66qq64#ue-----eu0tttww555ww",
"ww5w1*66q66%p8p.p.p8u355www5Owww",
"w5www,*666X;upppppppuwtwwwwO5www",
"wwwww5:*66@>3pdpdpdp555www55Owww",
"wwwwww5:X+Ot#udpdpdpww5w5O5Owwww",
"5ww55w>21OtwwuppdppuOOOOO5O55www",
"5555555wtsitttupppuiiitttO5O5555",
"5OOOOOOtiitw88eupue88ttttOOOOO55",
"wtsitttwttww88eeue888wttttOsiitw",
"wiitttwwtwww  eupue  wwttwwitttw",
"wtwwwwwttwww  eeuee  wwwwwwwwtww",
"wwwiiwwtwwwww eupue twwwww5wwwww",
"wwiittwtwwwww  eue  twwww55wwwww",
"wwttwwwtwwwww  eee  wwwww555w5ww",
"5wwtw55twww5w       wwwww5555w5w",
"w5wtw5Owwww5w5      wwww5555w5w5",
"555555OOO5555O     O555555O55555",
"5555555OOO555555  O555555OO55555"
};
