/* XPM */
static char *result[] = {
/* columns rows colors chars-per-pixel */
"32 32 35 1 ",
"  c #010101",
". c #060201",
"X c #090302",
"o c #0A0402",
"O c #0B0503",
"+ c #090605",
"@ c #0C0604",
"# c #0D0605",
"$ c #0E0605",
"% c #0E0906",
"& c #110906",
"* c #110A06",
"= c #120A06",
"- c #140C0A",
"; c #150D0B",
": c #170E0C",
"> c #19110D",
", c #1C120E",
"< c #171211",
"1 c #211513",
"2 c #281A17",
"3 c #2C221B",
"4 c #272727",
"5 c #3E312A",
"6 c #343434",
"7 c #4E3F38",
"8 c #414141",
"9 c #4E4E4E",
"0 c #6F5F56",
"q c #9A3000",
"w c #B35800",
"e c #E07F2D",
"r c #FDBE52",
"t c #FFFF6B",
"y c gray51",
/* pixels */
"<<<<<+<<<+++++++++<<<+++<<<<<<<<",
"077533X>X>33333q3X>>XX55XXX35770",
"755533XX>355075ee3XX35075XXX3570",
"555333>X33075555we>5533335XX3555",
"5533333X35555333eq>5333333>X>355",
"553333>X535333q3eq>3333333>X>333",
"33333>3X3353333qqe>>3>3333>X>33>",
"3333>3>X33333q3wew3>>3>3>3XX>33>",
">>3>3>XX333333qrew>3>>>>>>XX>>3>",
">XXXXXXX>3>3>>wrwqq5XX>>>XXXX>X>",
"X555X.XXX>>>>wqewewq3XXXXXXXXXX>",
">533-,1@..XX>wwerwew3>>>07553X5X",
"3333-,,,,,.#>eewreee>>0755333X5>",
"3333-,22,,,X8wwrtrew8>755533>>33",
"3>33-,,22,,X8qrtttrq8355533>>>33",
"33>3;$,,2,,O9w9t9t9w8>>>333>X333",
"3>333=$,,,.%899999998353333X>333",
"33333>&$,,O*>9y9y9y9>>>333>>X333",
"333333>&.oX5X8y9y9y933>3>X>X3333",
">33>>3*:;X533899y998XXXXX>X>>333",
">>>>>>>350755589998777555X>X>>>>",
">XXXXXX577534468986445555XXXXX>>",
"35075553553344668644435555X07753",
"377555335333  68986  33553375553",
"353333355333  66866  33333333533",
"3337733533333 68986 533333>33333",
"3377553533333  686  53333>>33333",
"3355333533333  666  33333>>>3>33",
">3353>>5333>3       33333>>>>3>3",
"3>353>X3333>3>      3333>>>>3>3>",
">>>>>>XXX>>>>X     X>>>>>>X>>>>>",
">>>>>>>XXX>>>>>>  X>>>>>>XX>>>>>"
};